{
  "accessors": [
    {
      "bufferView": 1,
      "componentType": 5126,
      "count": 76,
      "max": [
        0.087493948638439178,
        0.21102330088615417,
        1.9965130090713501
      ],
      "min": [
        -0.31389620900154114,
        -0.21102330088615417,
        -0.12354949861764908
      ],
      "type": "VEC3"
    },
    {
      "bufferView": 1,
      "byteOffset": 912,
      "componentType": 5126,
      "count": 76,
      "max": [
        0.99887210130691528,
        0.94998389482498169,
        1
      ],
      "min": [
        -0.99887210130691528,
        -0.94998371601104736,
        -1
      ],
      "type": "VEC3"
    },
    {
      "bufferView": 0,
      "componentType": 5125,
      "count": 108,
      "max": [
        75
      ],
      "min": [
        0
      ],
      "type": "SCALAR"
    },
    {
      "bufferView": 1,
      "byteOffset": 1824,
      "componentType": 5126,
      "count": 240,
      "max": [
        0.95105791091918945,
        1,
        0.83990210294723511
      ],
      "min": [
        -1.0048190355300903,
        -1,
        -0.87097430229187012
      ],
      "type": "VEC3"
    },
    {
      "bufferView": 1,
      "byteOffset": 4704,
      "componentType": 5126,
      "count": 240,
      "max": [
        0.93528950214385986,
        0.96536564826965332,
        0.99976831674575806
      ],
      "min": [
        -0.97923558950424194,
        -0.96536564826965332,
        -0.99921137094497681
      ],
      "type": "VEC3"
    },
    {
      "bufferView": 0,
      "byteOffset": 432,
      "componentType": 5125,
      "count": 240,
      "max": [
        239
      ],
      "min": [
        0
      ],
      "type": "SCALAR"
    },
    {
      "bufferView": 1,
      "byteOffset": 7584,
      "componentType": 5126,
      "count": 240,
      "max": [
        0.95105791091918945,
        1,
        0.90417301654815674
      ],
      "min": [
        -1.0525909662246704,
        -1,
        -1.0233889818191528
      ],
      "type": "VEC3"
    },
    {
      "bufferView": 1,
      "byteOffset": 10464,
      "componentType": 5126,
      "count": 240,
      "max": [
        0.99745029211044312,
        0.96536564826965332,
        0.94858860969543457
      ],
      "min": [
        -0.99074059724807739,
        -0.96536564826965332,
        -0.96393680572509766
      ],
      "type": "VEC3"
    },
    {
      "bufferView": 0,
      "byteOffset": 1392,
      "componentType": 5125,
      "count": 240,
      "max": [
        239
      ],
      "min": [
        0
      ],
      "type": "SCALAR"
    },
    {
      "bufferView": 1,
      "byteOffset": 13344,
      "componentType": 5126,
      "count": 240,
      "max": [
        0.85755950212478638,
        1,
        0.92146408557891846
      ],
      "min": [
        -0.93289667367935181,
        -1,
        -0.93570387363433838
      ],
      "type": "VEC3"
    },
    {
      "bufferView": 1,
      "byteOffset": 16224,
      "componentType": 5126,
      "count": 240,
      "max": [
        0.98870629072189331,
        0.9506189227104187,
        0.96537590026855469
      ],
      "min": [
        -0.99674582481384277,
        -0.9506189227104187,
        -0.98953533172607422
      ],
      "type": "VEC3"
    },
    {
      "bufferView": 0,
      "byteOffset": 2352,
      "componentType": 5125,
      "count": 240,
      "max": [
        239
      ],
      "min": [
        0
      ],
      "type": "SCALAR"
    },
    {
      "bufferView": 1,
      "byteOffset": 19104,
      "componentType": 5126,
      "count": 240,
      "max": [
        0.95105791091918945,
        1,
        0.83990210294723511
      ],
      "min": [
        -1.1078460216522217,
        -0.85064917802810669,
        -0.96731829643249512
      ],
      "type": "VEC3"
    },
    {
      "bufferView": 1,
      "byteOffset": 21984,
      "componentType": 5126,
      "count": 240,
      "max": [
        0.98895680904388428,
        0.96536564826965332,
        0.99976831674575806
      ],
      "min": [
        -0.95428931713104248,
        -0.9999358057975769,
        -0.97494691610336304
      ],
      "type": "VEC3"
    },
    {
      "bufferView": 0,
      "byteOffset": 3312,
      "componentType": 5125,
      "count": 240,
      "max": [
        239
      ],
      "min": [
        0
      ],
      "type": "SCALAR"
    },
    {
      "bufferView": 1,
      "byteOffset": 24864,
      "componentType": 5126,
      "count": 240,
      "max": [
        0.8748505711555481,
        1,
        0.86606931686401367
      ],
      "min": [
        -0.95158171653747559,
        -1,
        -0.89478898048400879
      ],
      "type": "VEC3"
    },
    {
      "bufferView": 1,
      "byteOffset": 27744,
      "componentType": 5126,
      "count": 240,
      "max": [
        0.98370087146759033,
        0.96536564826965332,
        0.97434091567993164
      ],
      "min": [
        -0.98887670040130615,
        -0.96536564826965332,
        -0.99530071020126343
      ],
      "type": "VEC3"
    },
    {
      "bufferView": 0,
      "byteOffset": 4272,
      "componentType": 5125,
      "count": 240,
      "max": [
        239
      ],
      "min": [
        0
      ],
      "type": "SCALAR"
    },
    {
      "bufferView": 1,
      "byteOffset": 30624,
      "componentType": 5126,
      "count": 149,
      "max": [
        0.087493948638439178,
        0.21102330088615417,
        1.9980700016021729
      ],
      "min": [
        -0.35003450512886047,
        -0.21102330088615417,
        -0.12354949861764908
      ],
      "type": "VEC3"
    },
    {
      "bufferView": 1,
      "byteOffset": 32412,
      "componentType": 5126,
      "count": 149,
      "max": [
        0.99867492914199829,
        0.95101350545883179,
        0.98243391513824463
      ],
      "min": [
        -0.99889069795608521,
        -0.95101332664489746,
        -1
      ],
      "type": "VEC3"
    },
    {
      "bufferView": 0,
      "byteOffset": 5232,
      "componentType": 5125,
      "count": 168,
      "max": [
        148
      ],
      "min": [
        0
      ],
      "type": "SCALAR"
    },
    {
      "bufferView": 1,
      "byteOffset": 34200,
      "componentType": 5126,
      "count": 130,
      "max": [
        0.087493948638439178,
        0.21102330088615417,
        1.9822570085525513
      ],
      "min": [
        -0.31389620900154114,
        -0.21102330088615417,
        -0.12354949861764908
      ],
      "type": "VEC3"
    },
    {
      "bufferView": 1,
      "byteOffset": 35760,
      "componentType": 5126,
      "count": 130,
      "max": [
        0.99668169021606445,
        0.95103949308395386,
        1
      ],
      "min": [
        -0.9999157190322876,
        -0.95103931427001953,
        -1
      ],
      "type": "VEC3"
    },
    {
      "bufferView": 0,
      "byteOffset": 5904,
      "componentType": 5125,
      "count": 168,
      "max": [
        129
      ],
      "min": [
        0
      ],
      "type": "SCALAR"
    },
    {
      "bufferView": 1,
      "byteOffset": 37320,
      "componentType": 5126,
      "count": 132,
      "max": [
        0.12592479586601257,
        0.21102330088615417,
        2.0064010620117188
      ],
      "min": [
        -0.31389620900154114,
        -0.21102330088615417,
        -0.12354949861764908
      ],
      "type": "VEC3"
    },
    {
      "bufferView": 1,
      "byteOffset": 38904,
      "componentType": 5126,
      "count": 132,
      "max": [
        0.99887210130691528,
        0.95102781057357788,
        1
      ],
      "min": [
        -0.99887210130691528,
        -0.95102769136428833,
        -1
      ],
      "type": "VEC3"
    },
    {
      "bufferView": 0,
      "byteOffset": 6576,
      "componentType": 5125,
      "count": 168,
      "max": [
        131
      ],
      "min": [
        0
      ],
      "type": "SCALAR"
    },
    {
      "bufferView": 1,
      "byteOffset": 40488,
      "componentType": 5126,
      "count": 130,
      "max": [
        0.087493948638439178,
        0.21102330088615417,
        1.9822570085525513
      ],
      "min": [
        -0.31389620900154114,
        -0.21102330088615417,
        -0.12354949861764908
      ],
      "type": "VEC3"
    },
    {
      "bufferView": 1,
      "byteOffset": 42048,
      "componentType": 5126,
      "count": 130,
      "max": [
        0.99668169021606445,
        0.95103949308395386,
        1
      ],
      "min": [
        -0.9999157190322876,
        -0.95103931427001953,
        -1
      ],
      "type": "VEC3"
    },
    {
      "bufferView": 0,
      "byteOffset": 7248,
      "componentType": 5125,
      "count": 168,
      "max": [
        129
      ],
      "min": [
        0
      ],
      "type": "SCALAR"
    },
    {
      "bufferView": 1,
      "byteOffset": 43608,
      "componentType": 5126,
      "count": 160,
      "max": [
        1,
        1,
        1
      ],
      "min": [
        -1,
        -1,
        0.27027019858360291
      ],
      "type": "VEC3"
    },
    {
      "bufferView": 1,
      "byteOffset": 45528,
      "componentType": 5126,
      "count": 160,
      "max": [
        0.99518483877182007,
        0.99518477916717529,
        1
      ],
      "min": [
        -0.99518489837646484,
        -0.99518483877182007,
        0
      ],
      "type": "VEC3"
    },
    {
      "bufferView": 0,
      "byteOffset": 7920,
      "componentType": 5125,
      "count": 282,
      "max": [
        159
      ],
      "min": [
        0
      ],
      "type": "SCALAR"
    },
    {
      "bufferView": 1,
      "byteOffset": 47448,
      "componentType": 5126,
      "count": 160,
      "max": [
        1,
        1,
        0.27027019858360291
      ],
      "min": [
        -1,
        -1,
        -1
      ],
      "type": "VEC3"
    },
    {
      "bufferView": 1,
      "byteOffset": 49368,
      "componentType": 5126,
      "count": 160,
      "max": [
        0.99518483877182007,
        0.99518477916717529,
        0
      ],
      "min": [
        -0.99518489837646484,
        -0.99518477916717529,
        -1
      ],
      "type": "VEC3"
    },
    {
      "bufferView": 0,
      "byteOffset": 9048,
      "componentType": 5125,
      "count": 282,
      "max": [
        159
      ],
      "min": [
        0
      ],
      "type": "SCALAR"
    }
  ],
  "asset": {
    "extras": {
      "author": "Game Green (https://sketchfab.com/gamegreen)",
      "license": "CC-BY-4.0 (http://creativecommons.org/licenses/by/4.0/)",
      "source": "https://sketchfab.com/models/2e746fec6e324851bb9f63e9b7f2a3ef",
      "title": "Tree Low Poly #01"
    },
    "generator": "Sketchfab-3.29.4",
    "version": "2.0"
  },
  "bufferViews": [
    {
      "buffer": 0,
      "byteLength": 10176,
      "byteOffset": 0,
      "name": "floatBufferViews",
      "target": 34963
    },
    {
      "buffer": 0,
      "byteLength": 51288,
      "byteOffset": 10176,
      "byteStride": 12,
      "name": "floatBufferViews",
      "target": 34962
    }
  ],
  "buffers": [
    {
      "byteLength": 61464,
      "uri": "scene.bin"
    }
  ],
  "materials": [
    {
      "doubleSided": true,
      "emissiveFactor": [
        0,
        0,
        0
      ],
      "name": "Grama",
      "pbrMetallicRoughness": {
        "baseColorFactor": [
          0.23691100000000001,
          0.43658000000000002,
          0.050408000000000001,
          1
        ],
        "metallicFactor": 0,
        "roughnessFactor": 0.59999999999999998
      }
    },
    {
      "doubleSided": true,
      "emissiveFactor": [
        0,
        0,
        0
      ],
      "name": "Terra",
      "pbrMetallicRoughness": {
        "baseColorFactor": [
          0.13461600000000001,
          0.057817500000000001,
          0.026483799999999998,
          1
        ],
        "metallicFactor": 0,
        "roughnessFactor": 0.59999999999999998
      }
    },
    {
      "doubleSided": true,
      "emissiveFactor": [
        0,
        0,
        0
      ],
      "name": "Material_000",
      "pbrMetallicRoughness": {
        "baseColorFactor": [
          0.64000000000000001,
          0.18540200000000001,
          0.031734999999999999,
          1
        ],
        "metallicFactor": 0,
        "roughnessFactor": 0.59999999999999998
      }
    },
    {
      "doubleSided": true,
      "emissiveFactor": [
        0,
        0,
        0
      ],
      "name": "Material_002",
      "pbrMetallicRoughness": {
        "baseColorFactor": [
          0.64000000000000001,
          0.18540200000000001,
          0.031734999999999999,
          1
        ],
        "metallicFactor": 0,
        "roughnessFactor": 0.59999999999999998
      }
    },
    {
      "doubleSided": true,
      "emissiveFactor": [
        0,
        0,
        0
      ],
      "name": "Material_001",
      "pbrMetallicRoughness": {
        "baseColorFactor": [
          0.000910282,
          0.64000000000000001,
          0.116954,
          1
        ],
        "metallicFactor": 0,
        "roughnessFactor": 0.59999999999999998
      }
    }
  ],
  "meshes": [
    {
      "name": "Material_002-material",
      "primitives": [
        {
          "attributes": {
            "NORMAL": 1,
            "POSITION": 0
          },
          "indices": 2,
          "material": 3,
          "mode": 4
        }
      ]
    },
    {
      "name": "Material_001-material",
      "primitives": [
        {
          "attributes": {
            "NORMAL": 4,
            "POSITION": 3
          },
          "indices": 5,
          "material": 4,
          "mode": 4
        }
      ]
    },
    {
      "name": "Material_001-material",
      "primitives": [
        {
          "attributes": {
            "NORMAL": 7,
            "POSITION": 6
          },
          "indices": 8,
          "material": 4,
          "mode": 4
        }
      ]
    },
    {
      "name": "Material_001-material",
      "primitives": [
        {
          "attributes": {
            "NORMAL": 10,
            "POSITION": 9
          },
          "indices": 11,
          "material": 4,
          "mode": 4
        }
      ]
    },
    {
      "name": "Material_001-material",
      "primitives": [
        {
          "attributes": {
            "NORMAL": 13,
            "POSITION": 12
          },
          "indices": 14,
          "material": 4,
          "mode": 4
        }
      ]
    },
    {
      "name": "Material_001-material",
      "primitives": [
        {
          "attributes": {
            "NORMAL": 16,
            "POSITION": 15
          },
          "indices": 17,
          "material": 4,
          "mode": 4
        }
      ]
    },
    {
      "name": "Material_002-material",
      "primitives": [
        {
          "attributes": {
            "NORMAL": 19,
            "POSITION": 18
          },
          "indices": 20,
          "material": 3,
          "mode": 4
        }
      ]
    },
    {
      "name": "Material_002-material",
      "primitives": [
        {
          "attributes": {
            "NORMAL": 22,
            "POSITION": 21
          },
          "indices": 23,
          "material": 3,
          "mode": 4
        }
      ]
    },
    {
      "name": "Material_002-material",
      "primitives": [
        {
          "attributes": {
            "NORMAL": 25,
            "POSITION": 24
          },
          "indices": 26,
          "material": 3,
          "mode": 4
        }
      ]
    },
    {
      "name": "Material_000-material",
      "primitives": [
        {
          "attributes": {
            "NORMAL": 28,
            "POSITION": 27
          },
          "indices": 29,
          "material": 2,
          "mode": 4
        }
      ]
    },
    {
      "name": "Grama-material",
      "primitives": [
        {
          "attributes": {
            "NORMAL": 31,
            "POSITION": 30
          },
          "indices": 32,
          "material": 0,
          "mode": 4
        }
      ]
    },
    {
      "name": "Terra-material",
      "primitives": [
        {
          "attributes": {
            "NORMAL": 34,
            "POSITION": 33
          },
          "indices": 35,
          "material": 1,
          "mode": 4
        }
      ]
    }
  ],
  "nodes": [
    {
      "children": [
        1
      ],
      "name": "RootNode (gltf orientation matrix)",
      "rotation": [
        -0.70710678118654746,
        -0,
        -0,
        0.70710678118654757
      ]
    },
    {
      "children": [
        2
      ],
      "name": "RootNode (model correction matrix)"
    },
    {
      "children": [
        3,
        5,
        7,
        9,
        11,
        13,
        15,
        17,
        19,
        21,
        23,
        25,
        28
      ],
      "name": "Collada visual scene group"
    },
    {
      "children": [
        4
      ],
      "matrix": [
        0.73246529999999999,
        0,
        0,
        0,
        0,
        0.73246529999999999,
        0,
        0,
        0,
        0,
        0.73246529999999999,
        0,
        1.7493110000000001,
        -0.8593459,
        0.18992039999999999,
        1
      ],
      "name": "Cylinder"
    },
    {
      "mesh": 0,
      "name": "Material_002-material"
    },
    {
      "children": [
        6
      ],
      "matrix": [
        0.73246529999999999,
        0,
        0,
        0,
        0,
        0.73246529999999999,
        0,
        0,
        0,
        0,
        0.73246529999999999,
        0,
        1.6629659999999999,
        -0.84440769999999998,
        2.1305890000000001,
        1
      ],
      "name": "Icosphere"
    },
    {
      "mesh": 1,
      "name": "Material_001-material"
    },
    {
      "children": [
        8
      ],
      "matrix": [
        0.39951599999999998,
        -0.22383610000000001,
        -6.6708400000000001e-09,
        0,
        0.22383610000000001,
        0.39951599999999998,
        -1.7413899999999999e-09,
        0,
        6.6708400000000001e-09,
        -1.7413899999999999e-09,
        0.4579472,
        0,
        1.0686990000000001,
        -0.50962859999999999,
        1.6423110000000001,
        1
      ],
      "name": "Icosphere_001"
    },
    {
      "mesh": 2,
      "name": "Material_001-material"
    },
    {
      "children": [
        10
      ],
      "matrix": [
        0.30327110000000002,
        0,
        0,
        0,
        0,
        0.30327110000000002,
        0,
        0,
        0,
        0,
        0.30327110000000002,
        0,
        2.3638810000000001,
        -0.84440769999999998,
        1.6029340000000001,
        1
      ],
      "name": "Icosphere_002"
    },
    {
      "mesh": 3,
      "name": "Material_001-material"
    },
    {
      "children": [
        12
      ],
      "matrix": [
        0.21690309999999999,
        0,
        0,
        0,
        0,
        0.21690309999999999,
        0,
        0,
        0,
        0,
        0.21690309999999999,
        0,
        1.2455670000000001,
        -0.84440769999999998,
        1.006043,
        1
      ],
      "name": "Icosphere_003"
    },
    {
      "mesh": 4,
      "name": "Material_001-material"
    },
    {
      "children": [
        14
      ],
      "matrix": [
        0.4579472,
        0,
        0,
        0,
        0,
        0.4579472,
        0,
        0,
        0,
        0,
        0.4579472,
        0,
        2.0739079999999999,
        -1.0050460000000001,
        1.6974389999999999,
        1
      ],
      "name": "Icosphere_004"
    },
    {
      "mesh": 5,
      "name": "Material_001-material"
    },
    {
      "children": [
        16
      ],
      "matrix": [
        0.1440468,
        2.9008200000000002e-08,
        -0.2159007,
        0,
        -2.9008200000000002e-08,
        0.25954300000000002,
        1.5517900000000002e-08,
        0,
        0.2159007,
        1.5517900000000002e-08,
        0.1440468,
        0,
        1.755592,
        -0.8593459,
        1.0473250000000001,
        1
      ],
      "name": "Cylinder_001"
    },
    {
      "mesh": 6,
      "name": "Material_002-material"
    },
    {
      "children": [
        18
      ],
      "matrix": [
        0.1386317,
        -0.077670980000000001,
        0.2052098,
        0,
        0.1268599,
        0.22642689999999999,
        1.25344e-08,
        0,
        -0.1790263,
        0.10030269999999999,
        0.1589073,
        0,
        1.6083050000000001,
        -0.82907580000000003,
        1.125842,
        1
      ],
      "name": "Cylinder_002"
    },
    {
      "mesh": 7,
      "name": "Material_002-material"
    },
    {
      "children": [
        20
      ],
      "matrix": [
        0.099819400000000003,
        -1.7319499999999998e-08,
        0.12890480000000001,
        0,
        1.7319499999999998e-08,
        0.1630347,
        8.4935500000000003e-09,
        0,
        -0.12890480000000001,
        8.4935500000000003e-09,
        0.099819400000000003,
        0,
        1.617872,
        -0.8593459,
        0.728931,
        1
      ],
      "name": "Cylinder_003"
    },
    {
      "mesh": 8,
      "name": "Material_002-material"
    },
    {
      "children": [
        22
      ],
      "matrix": [
        -0.1035658,
        0.13939889999999999,
        0.1928851,
        0,
        -0.19142809999999999,
        -0.17377519999999999,
        0.022804600000000001,
        0,
        0.14139299999999999,
        -0.13316420000000001,
        0.17215659999999999,
        0,
        1.65195,
        -0.8593459,
        1.124841,
        1
      ],
      "name": "Cylinder_004"
    },
    {
      "mesh": 9,
      "name": "Material_000-material"
    },
    {
      "children": [
        24
      ],
      "matrix": [
        1,
        8.3040199999999996e-10,
        1.2845199999999999e-07,
        0,
        -1.26543e-07,
        0.17825360000000001,
        0.98398459999999999,
        0,
        -2.2079900000000001e-08,
        -0.98398459999999999,
        0.17825360000000001,
        0,
        1.6954959999999999,
        -13.104340000000001,
        3.567142,
        1
      ],
      "name": "Camera"
    },
    {
      "name": "Camera-camera"
    },
    {
      "children": [
        26,
        27
      ],
      "matrix": [
        1,
        0,
        0,
        0,
        0,
        1,
        0,
        0,
        0,
        0,
        0.14999999999999999,
        0,
        1.665659,
        -0.85991289999999998,
        0,
        1
      ],
      "name": "Cylinder_005"
    },
    {
      "mesh": 10,
      "name": "Grama-material"
    },
    {
      "mesh": 11,
      "name": "Terra-material"
    },
    {
      "children": [
        29
      ],
      "matrix": [
        -0.88960700000000004,
        0.1046936,
        0.44456560000000001,
        0,
        -0.45672679999999999,
        -0.2039231,
        -0.8659192,
        0,
        9.9718700000000002e-07,
        -0.97337280000000004,
        0.22922780000000001,
        0,
        1.647551,
        -9.6261500000000009,
        4.2101889999999997,
        1
      ],
      "name": "Sun"
    },
    {
      "name": "Sun"
    }
  ],
  "scene": 0,
  "scenes": [
    {
      "name": "OSG_Scene",
      "nodes": [
        0
      ]
    }
  ]
}

