{
    "asset" : {
        "generator" : "Khronos glTF Blender I/O v1.7.33",
        "version" : "2.0"
    },
    "scene" : 0,
    "scenes" : [
        {
            "name" : "Scene",
            "nodes" : [
                0,
                1,
                2,
                3
            ]
        }
    ],
    "nodes" : [
        {
            "mesh" : 0,
            "name" : "Circle.001",
            "scale" : [
                3.0645222663879395,
                3.0645222663879395,
                3.0645222663879395
            ],
            "translation" : [
                0,
                -0.37032046914100647,
                0
            ]
        },
        {
            "mesh" : 1,
            "name" : "Circle.002",
            "rotation" : [
                0,
                0,
                -0.8980770111083984,
                0.4398382306098938
            ],
            "scale" : [
                2.8821499347686768,
                2.8821499347686768,
                2.8821499347686768
            ],
            "translation" : [
                -0.021783560514450073,
                0,
                0
            ]
        },
        {
            "mesh" : 2,
            "name" : "Circle.003",
            "rotation" : [
                -0.6455656290054321,
                -0.3177655339241028,
                0.6230658292770386,
                0.306690514087677
            ],
            "scale" : [
                2.9000706672668457,
                2.9000706672668457,
                2.900070905685425
            ],
            "translation" : [
                -0.021783560514450073,
                0,
                0
            ]
        },
        {
            "mesh" : 3,
            "name" : "Sphere"
        }
    ],
    "materials" : [
        {
            "doubleSided" : true,
            "name" : "Material.001",
            "pbrMetallicRoughness" : {
                "baseColorFactor" : [
                    0.09989878535270691,
                    0.5711250901222229,
                    0.7681513428688049,
                    1
                ],
                "metallicFactor" : 0.5032680034637451,
                "roughnessFactor" : 0.5130718946456909
            }
        },
        {
            "doubleSided" : true,
            "name" : "Material.003",
            "pbrMetallicRoughness" : {
                "baseColorFactor" : [
                    0.09989878535270691,
                    0.5711250901222229,
                    0.7681513428688049,
                    1
                ],
                "metallicFactor" : 0.5032680034637451,
                "roughnessFactor" : 0.39542484283447266
            }
        }
    ],
    "meshes" : [
        {
            "name" : "Circle.001",
            "primitives" : [
                {
                    "attributes" : {
                        "POSITION" : 0,
                        "NORMAL" : 1,
                        "TEXCOORD_0" : 2
                    },
                    "indices" : 3,
                    "material" : 0
                }
            ]
        },
        {
            "name" : "Circle.006",
            "primitives" : [
                {
                    "attributes" : {
                        "POSITION" : 4,
                        "NORMAL" : 5,
                        "TEXCOORD_0" : 6
                    },
                    "indices" : 3,
                    "material" : 0
                }
            ]
        },
        {
            "name" : "Circle.007",
            "primitives" : [
                {
                    "attributes" : {
                        "POSITION" : 7,
                        "NORMAL" : 8,
                        "TEXCOORD_0" : 9
                    },
                    "indices" : 3,
                    "material" : 0
                }
            ]
        },
        {
            "name" : "Sphere",
            "primitives" : [
                {
                    "attributes" : {
                        "POSITION" : 10,
                        "NORMAL" : 11,
                        "TEXCOORD_0" : 12
                    },
                    "indices" : 13,
                    "material" : 1
                }
            ]
        }
    ],
    "accessors" : [
        {
            "bufferView" : 0,
            "componentType" : 5126,
            "count" : 64,
            "max" : [
                1,
                0.24845770001411438,
                1
            ],
            "min" : [
                -1,
                0,
                -1
            ],
            "type" : "VEC3"
        },
        {
            "bufferView" : 1,
            "componentType" : 5126,
            "count" : 64,
            "type" : "VEC3"
        },
        {
            "bufferView" : 2,
            "componentType" : 5126,
            "count" : 64,
            "type" : "VEC2"
        },
        {
            "bufferView" : 3,
            "componentType" : 5123,
            "count" : 384,
            "type" : "SCALAR"
        },
        {
            "bufferView" : 4,
            "componentType" : 5126,
            "count" : 64,
            "max" : [
                1,
                0.12422880530357361,
                1
            ],
            "min" : [
                -1,
                -0.12422889471054077,
                -1
            ],
            "type" : "VEC3"
        },
        {
            "bufferView" : 5,
            "componentType" : 5126,
            "count" : 64,
            "type" : "VEC3"
        },
        {
            "bufferView" : 6,
            "componentType" : 5126,
            "count" : 64,
            "type" : "VEC2"
        },
        {
            "bufferView" : 7,
            "componentType" : 5126,
            "count" : 64,
            "max" : [
                1,
                0.12422880530357361,
                1
            ],
            "min" : [
                -1,
                -0.12422889471054077,
                -1
            ],
            "type" : "VEC3"
        },
        {
            "bufferView" : 8,
            "componentType" : 5126,
            "count" : 64,
            "type" : "VEC3"
        },
        {
            "bufferView" : 9,
            "componentType" : 5126,
            "count" : 64,
            "type" : "VEC2"
        },
        {
            "bufferView" : 10,
            "componentType" : 5126,
            "count" : 559,
            "max" : [
                0.9999997019767761,
                1,
                0.9999994039535522
            ],
            "min" : [
                -0.9999990463256836,
                -1,
                -0.9999987483024597
            ],
            "type" : "VEC3"
        },
        {
            "bufferView" : 11,
            "componentType" : 5126,
            "count" : 559,
            "type" : "VEC3"
        },
        {
            "bufferView" : 12,
            "componentType" : 5126,
            "count" : 559,
            "type" : "VEC2"
        },
        {
            "bufferView" : 13,
            "componentType" : 5123,
            "count" : 2880,
            "type" : "SCALAR"
        }
    ],
    "bufferViews" : [
        {
            "buffer" : 0,
            "byteLength" : 768,
            "byteOffset" : 0
        },
        {
            "buffer" : 0,
            "byteLength" : 768,
            "byteOffset" : 768
        },
        {
            "buffer" : 0,
            "byteLength" : 512,
            "byteOffset" : 1536
        },
        {
            "buffer" : 0,
            "byteLength" : 768,
            "byteOffset" : 2048
        },
        {
            "buffer" : 0,
            "byteLength" : 768,
            "byteOffset" : 2816
        },
        {
            "buffer" : 0,
            "byteLength" : 768,
            "byteOffset" : 3584
        },
        {
            "buffer" : 0,
            "byteLength" : 512,
            "byteOffset" : 4352
        },
        {
            "buffer" : 0,
            "byteLength" : 768,
            "byteOffset" : 4864
        },
        {
            "buffer" : 0,
            "byteLength" : 768,
            "byteOffset" : 5632
        },
        {
            "buffer" : 0,
            "byteLength" : 512,
            "byteOffset" : 6400
        },
        {
            "buffer" : 0,
            "byteLength" : 6708,
            "byteOffset" : 6912
        },
        {
            "buffer" : 0,
            "byteLength" : 6708,
            "byteOffset" : 13620
        },
        {
            "buffer" : 0,
            "byteLength" : 4472,
            "byteOffset" : 20328
        },
        {
            "buffer" : 0,
            "byteLength" : 5760,
            "byteOffset" : 24800
        }
    ],
    "buffers" : [
        {
            "byteLength" : 30560,
            "uri" : "react.bin"
        }
    ]
}
