{
    "asset" : {
        "generator" : "Khronos glTF Blender I/O v1.7.33",
        "version" : "2.0"
    },
    "scene" : 0,
    "scenes" : [
        {
            "name" : "Scene",
            "nodes" : [
                0
            ]
        }
    ],
    "nodes" : [
        {
            "mesh" : 0,
            "name" : "Plane",
            "scale" : [
                50,
                50,
                50
            ]
        }
    ],
    "materials" : [
        {
            "doubleSided" : true,
            "name" : "Grass",
            "pbrMetallicRoughness" : {
                "baseColorFactor" : [
                    0.05020555481314659,
                    0.18214139342308044,
                    0.03626478835940361,
                    1
                ],
                "metallicFactor" : 0
            }
        }
    ],
    "meshes" : [
        {
            "name" : "Plane",
            "primitives" : [
                {
                    "attributes" : {
                        "POSITION" : 0,
                        "NORMAL" : 1,
                        "TEXCOORD_0" : 2
                    },
                    "indices" : 3,
                    "material" : 0
                }
            ]
        }
    ],
    "accessors" : [
        {
            "bufferView" : 0,
            "componentType" : 5126,
            "count" : 10404,
            "max" : [
                8,
                0,
                8
            ],
            "min" : [
                -8,
                0,
                -8
            ],
            "type" : "VEC3"
        },
        {
            "bufferView" : 1,
            "componentType" : 5126,
            "count" : 10404,
            "type" : "VEC3"
        },
        {
            "bufferView" : 2,
            "componentType" : 5126,
            "count" : 10404,
            "type" : "VEC2"
        },
        {
            "bufferView" : 3,
            "componentType" : 5123,
            "count" : 61206,
            "type" : "SCALAR"
        }
    ],
    "bufferViews" : [
        {
            "buffer" : 0,
            "byteLength" : 124848,
            "byteOffset" : 0
        },
        {
            "buffer" : 0,
            "byteLength" : 124848,
            "byteOffset" : 124848
        },
        {
            "buffer" : 0,
            "byteLength" : 83232,
            "byteOffset" : 249696
        },
        {
            "buffer" : 0,
            "byteLength" : 122412,
            "byteOffset" : 332928
        }
    ],
    "buffers" : [
        {
            "byteLength" : 455340,
            "uri" : "data:application/octet-stream;base64,"
        }
    ]
}
