{
  "accessors": [
    {
      "bufferView": 2,
      "componentType": 5126,
      "count": 2236,
      "max": [
        3.0965545177459717,
        3.1005959510803223,
        2.0234532356262207
      ],
      "min": [
        -3.094489574432373,
        -3.0999841690063477,
        -7.5198302268981934
      ],
      "type": "VEC3"
    },
    {
      "bufferView": 2,
      "byteOffset": 26832,
      "componentType": 5126,
      "count": 2236,
      "max": [
        1,
        1,
        1
      ],
      "min": [
        -1,
        -1,
        -0.99994605779647827
      ],
      "type": "VEC3"
    },
    {
      "bufferView": 3,
      "componentType": 5126,
      "count": 2236,
      "max": [
        1,
        1,
        0.99999886751174927,
        1
      ],
      "min": [
        -1,
        -1,
        -0.99945354461669922,
        -1
      ],
      "type": "VEC4"
    },
    {
      "bufferView": 1,
      "componentType": 5126,
      "count": 2236,
      "max": [
        3.8009986877441406,
        1.7426943778991699
      ],
      "min": [
        -0.043332517147064209,
        1.7932748050952796e-06
      ],
      "type": "VEC2"
    },
    {
      "bufferView": 1,
      "byteOffset": 17888,
      "componentType": 5126,
      "count": 2236,
      "max": [
        3.8009986877441406,
        1.7426943778991699
      ],
      "min": [
        -0.043332517147064209,
        1.7932748050952796e-06
      ],
      "type": "VEC2"
    },
    {
      "bufferView": 1,
      "byteOffset": 35776,
      "componentType": 5126,
      "count": 2236,
      "max": [
        3.8009986877441406,
        1.7426943778991699
      ],
      "min": [
        -0.043332517147064209,
        1.7932748050952796e-06
      ],
      "type": "VEC2"
    },
    {
      "bufferView": 0,
      "componentType": 5125,
      "count": 5988,
      "max": [
        2235
      ],
      "min": [
        0
      ],
      "type": "SCALAR"
    },
    {
      "bufferView": 2,
      "byteOffset": 53664,
      "componentType": 5126,
      "count": 125,
      "max": [
        2.4267158508300781,
        2.4267165660858154,
        6.9649777412414551
      ],
      "min": [
        -2.4267144203186035,
        -2.4267160892486572,
        -6.9776549339294434
      ],
      "type": "VEC3"
    },
    {
      "bufferView": 2,
      "byteOffset": 55164,
      "componentType": 5126,
      "count": 125,
      "max": [
        1,
        1,
        2.959465348340018e-07
      ],
      "min": [
        -1,
        -1,
        -2.839927617515059e-07
      ],
      "type": "VEC3"
    },
    {
      "bufferView": 3,
      "byteOffset": 35776,
      "componentType": 5126,
      "count": 125,
      "max": [
        1,
        1,
        -0.00026531383628025651,
        1
      ],
      "min": [
        -1,
        -1,
        -0.00026831956347450614,
        1
      ],
      "type": "VEC4"
    },
    {
      "bufferView": 1,
      "byteOffset": 53664,
      "componentType": 5126,
      "count": 125,
      "max": [
        3.0781245231628418,
        1.2362663745880127
      ],
      "min": [
        -0.72379505634307861,
        -2.2503972053527832
      ],
      "type": "VEC2"
    },
    {
      "bufferView": 1,
      "byteOffset": 54664,
      "componentType": 5126,
      "count": 125,
      "max": [
        3.0781245231628418,
        1.2362663745880127
      ],
      "min": [
        -0.72379505634307861,
        -2.2503972053527832
      ],
      "type": "VEC2"
    },
    {
      "bufferView": 1,
      "byteOffset": 55664,
      "componentType": 5126,
      "count": 125,
      "max": [
        3.0781245231628418,
        1.2362663745880127
      ],
      "min": [
        -0.72379505634307861,
        -2.2503972053527832
      ],
      "type": "VEC2"
    },
    {
      "bufferView": 0,
      "byteOffset": 23952,
      "componentType": 5125,
      "count": 432,
      "max": [
        124
      ],
      "min": [
        0
      ],
      "type": "SCALAR"
    },
    {
      "bufferView": 2,
      "byteOffset": 56664,
      "componentType": 5126,
      "count": 3145,
      "max": [
        3.0166025161743164,
        3.0061652660369873,
        11.919711112976074
      ],
      "min": [
        -3.0122382640838623,
        -2.9868080615997314,
        7.0937509536743164
      ],
      "type": "VEC3"
    },
    {
      "bufferView": 2,
      "byteOffset": 94404,
      "componentType": 5126,
      "count": 3145,
      "max": [
        1,
        1,
        1
      ],
      "min": [
        -1,
        -1,
        -1
      ],
      "type": "VEC3"
    },
    {
      "bufferView": 3,
      "byteOffset": 37776,
      "componentType": 5126,
      "count": 3145,
      "max": [
        0.99955165386199951,
        0.999855637550354,
        0.982960045337677,
        1
      ],
      "min": [
        -0.99914354085922241,
        -0.99996942281723022,
        -0.99980568885803223,
        1
      ],
      "type": "VEC4"
    },
    {
      "bufferView": 1,
      "byteOffset": 56664,
      "componentType": 5126,
      "count": 3145,
      "max": [
        1.3397941589355469,
        1.7557938098907471
      ],
      "min": [
        -0.19727979600429535,
        -0.43222814798355103
      ],
      "type": "VEC2"
    },
    {
      "bufferView": 1,
      "byteOffset": 81824,
      "componentType": 5126,
      "count": 3145,
      "max": [
        1.3397941589355469,
        1.7557938098907471
      ],
      "min": [
        -0.19727979600429535,
        -0.43222814798355103
      ],
      "type": "VEC2"
    },
    {
      "bufferView": 1,
      "byteOffset": 106984,
      "componentType": 5126,
      "count": 3145,
      "max": [
        1.3397941589355469,
        1.7557938098907471
      ],
      "min": [
        -0.19727979600429535,
        -0.43222814798355103
      ],
      "type": "VEC2"
    },
    {
      "bufferView": 0,
      "byteOffset": 25680,
      "componentType": 5125,
      "count": 5022,
      "max": [
        3144
      ],
      "min": [
        0
      ],
      "type": "SCALAR"
    },
    {
      "bufferView": 2,
      "byteOffset": 132144,
      "componentType": 5126,
      "count": 2299,
      "max": [
        2.8431673049926758,
        2.8431708812713623,
        7.4040660858154297
      ],
      "min": [
        -2.8431696891784668,
        -2.8431661128997803,
        -6.9858884811401367
      ],
      "type": "VEC3"
    },
    {
      "bufferView": 2,
      "byteOffset": 159732,
      "componentType": 5126,
      "count": 2299,
      "max": [
        1,
        1,
        1
      ],
      "min": [
        -1,
        -1,
        -1
      ],
      "type": "VEC3"
    },
    {
      "bufferView": 3,
      "byteOffset": 88096,
      "componentType": 5126,
      "count": 2299,
      "max": [
        1,
        1,
        1,
        1
      ],
      "min": [
        -1,
        -1,
        -1,
        1
      ],
      "type": "VEC4"
    },
    {
      "bufferView": 1,
      "byteOffset": 132144,
      "componentType": 5126,
      "count": 2299,
      "max": [
        0.98548489809036255,
        0.96047061681747437
      ],
      "min": [
        0.012460777536034584,
        0.021733608096837997
      ],
      "type": "VEC2"
    },
    {
      "bufferView": 1,
      "byteOffset": 150536,
      "componentType": 5126,
      "count": 2299,
      "max": [
        0.98548489809036255,
        0.96047061681747437
      ],
      "min": [
        0.012460777536034584,
        0.021733608096837997
      ],
      "type": "VEC2"
    },
    {
      "bufferView": 1,
      "byteOffset": 168928,
      "componentType": 5126,
      "count": 2299,
      "max": [
        0.98548489809036255,
        0.96047061681747437
      ],
      "min": [
        0.012460777536034584,
        0.021733608096837997
      ],
      "type": "VEC2"
    },
    {
      "bufferView": 0,
      "byteOffset": 45768,
      "componentType": 5125,
      "count": 8304,
      "max": [
        2298
      ],
      "min": [
        0
      ],
      "type": "SCALAR"
    },
    {
      "bufferView": 2,
      "byteOffset": 187320,
      "componentType": 5126,
      "count": 26,
      "max": [
        0.46188142895698547,
        2.0193281173706055,
        0.24561738967895508
      ],
      "min": [
        -0.46072062849998474,
        -2.018120288848877,
        -1.0081453323364258
      ],
      "type": "VEC3"
    },
    {
      "bufferView": 2,
      "byteOffset": 187632,
      "componentType": 5126,
      "count": 26,
      "max": [
        0,
        1,
        7.6255309977568686e-07
      ],
      "min": [
        0,
        -1,
        -9.3387197921401821e-06
      ],
      "type": "VEC3"
    },
    {
      "bufferView": 3,
      "byteOffset": 124880,
      "componentType": 5126,
      "count": 26,
      "max": [
        1.3965171092422679e-05,
        9.3387188826454803e-06,
        -1,
        1
      ],
      "min": [
        -7.5955767897539772e-06,
        -9.3387197921401821e-06,
        -1,
        1
      ],
      "type": "VEC4"
    },
    {
      "bufferView": 1,
      "byteOffset": 187320,
      "componentType": 5126,
      "count": 26,
      "max": [
        0.34338045120239258,
        0.17706458270549774
      ],
      "min": [
        0.27787962555885315,
        0.12892182171344757
      ],
      "type": "VEC2"
    },
    {
      "bufferView": 0,
      "byteOffset": 78984,
      "componentType": 5125,
      "count": 66,
      "max": [
        25
      ],
      "min": [
        0
      ],
      "type": "SCALAR"
    }
  ],
  "asset": {
    "extras": {
      "author": "Den (https://sketchfab.com/dfomenco)",
      "license": "CC-BY-4.0 (http://creativecommons.org/licenses/by/4.0/)",
      "source": "https://sketchfab.com/3d-models/medieval-tower-6c821f2aae3b4e8db5d94c6f48fb568b",
      "title": "Medieval Tower"
    },
    "generator": "Sketchfab-6.0.0",
    "version": "2.0"
  },
  "bufferViews": [
    {
      "buffer": 0,
      "byteLength": 79248,
      "byteOffset": 0,
      "name": "floatBufferViews",
      "target": 34963
    },
    {
      "buffer": 0,
      "byteLength": 187528,
      "byteOffset": 79248,
      "byteStride": 8,
      "name": "floatBufferViews",
      "target": 34962
    },
    {
      "buffer": 0,
      "byteLength": 187944,
      "byteOffset": 266776,
      "byteStride": 12,
      "name": "floatBufferViews",
      "target": 34962
    },
    {
      "buffer": 0,
      "byteLength": 125296,
      "byteOffset": 454720,
      "byteStride": 16,
      "name": "floatBufferViews",
      "target": 34962
    }
  ],
  "buffers": [
    {
      "byteLength": 580016,
      "uri": "scene.bin"
    }
  ],
  "images": [
    {
      "uri": "textures/Brick_MT_baseColor.png"
    },
    {
      "uri": "textures/Brick_MT_metallicRoughness.png"
    },
    {
      "uri": "textures/Brick_MT_normal.png"
    },
    {
      "uri": "textures/Plaster_MT_baseColor.png"
    },
    {
      "uri": "textures/Plaster_MT_metallicRoughness.png"
    },
    {
      "uri": "textures/Plaster_MT_normal.png"
    },
    {
      "uri": "textures/Roof_MT_baseColor.png"
    },
    {
      "uri": "textures/Roof_MT_metallicRoughness.png"
    },
    {
      "uri": "textures/Roof_MT_normal.png"
    },
    {
      "uri": "textures/Details_MT_baseColor.png"
    },
    {
      "uri": "textures/Details_MT_metallicRoughness.png"
    },
    {
      "uri": "textures/Details_MT_normal.png"
    }
  ],
  "materials": [
    {
      "doubleSided": true,
      "name": "Brick_MT",
      "normalTexture": {
        "index": 2,
        "scale": 1,
        "texCoord": 0
      },
      "pbrMetallicRoughness": {
        "baseColorFactor": [
          1,
          1,
          1,
          1
        ],
        "baseColorTexture": {
          "index": 0,
          "texCoord": 0
        },
        "metallicFactor": 0,
        "metallicRoughnessTexture": {
          "index": 1,
          "texCoord": 0
        },
        "roughnessFactor": 1
      }
    },
    {
      "doubleSided": false,
      "name": "Plaster_MT",
      "normalTexture": {
        "index": 5,
        "scale": 1,
        "texCoord": 0
      },
      "pbrMetallicRoughness": {
        "baseColorFactor": [
          1,
          1,
          1,
          1
        ],
        "baseColorTexture": {
          "index": 3,
          "texCoord": 0
        },
        "metallicFactor": 0,
        "metallicRoughnessTexture": {
          "index": 4,
          "texCoord": 0
        },
        "roughnessFactor": 1
      }
    },
    {
      "doubleSided": false,
      "name": "Roof_MT",
      "normalTexture": {
        "index": 8,
        "scale": 1,
        "texCoord": 0
      },
      "pbrMetallicRoughness": {
        "baseColorFactor": [
          1,
          1,
          1,
          1
        ],
        "baseColorTexture": {
          "index": 6,
          "texCoord": 0
        },
        "metallicFactor": 0,
        "metallicRoughnessTexture": {
          "index": 7,
          "texCoord": 0
        },
        "roughnessFactor": 1
      }
    },
    {
      "doubleSided": false,
      "name": "Details_MT",
      "normalTexture": {
        "index": 11,
        "scale": 1,
        "texCoord": 0
      },
      "pbrMetallicRoughness": {
        "baseColorFactor": [
          1,
          1,
          1,
          1
        ],
        "baseColorTexture": {
          "index": 9,
          "texCoord": 0
        },
        "metallicFactor": 1,
        "metallicRoughnessTexture": {
          "index": 10,
          "texCoord": 0
        },
        "roughnessFactor": 1
      }
    },
    {
      "doubleSided": false,
      "name": "Glass_MT",
      "pbrMetallicRoughness": {
        "baseColorFactor": [
          0.80000000000000004,
          0.80000000000000004,
          0.80000000000000004,
          1
        ],
        "metallicFactor": 0,
        "roughnessFactor": 0
      }
    }
  ],
  "meshes": [
    {
      "name": "Tower_Brick_MT_0",
      "primitives": [
        {
          "attributes": {
            "NORMAL": 1,
            "POSITION": 0,
            "TANGENT": 2,
            "TEXCOORD_0": 3,
            "TEXCOORD_1": 4,
            "TEXCOORD_2": 5
          },
          "indices": 6,
          "material": 0,
          "mode": 4
        }
      ]
    },
    {
      "name": "Tower_Plaster_MT_0",
      "primitives": [
        {
          "attributes": {
            "NORMAL": 8,
            "POSITION": 7,
            "TANGENT": 9,
            "TEXCOORD_0": 10,
            "TEXCOORD_1": 11,
            "TEXCOORD_2": 12
          },
          "indices": 13,
          "material": 1,
          "mode": 4
        }
      ]
    },
    {
      "name": "Tower_Roof_MT_0",
      "primitives": [
        {
          "attributes": {
            "NORMAL": 15,
            "POSITION": 14,
            "TANGENT": 16,
            "TEXCOORD_0": 17,
            "TEXCOORD_1": 18,
            "TEXCOORD_2": 19
          },
          "indices": 20,
          "material": 2,
          "mode": 4
        }
      ]
    },
    {
      "name": "Tower_Details_MT_0",
      "primitives": [
        {
          "attributes": {
            "NORMAL": 22,
            "POSITION": 21,
            "TANGENT": 23,
            "TEXCOORD_0": 24,
            "TEXCOORD_1": 25,
            "TEXCOORD_2": 26
          },
          "indices": 27,
          "material": 3,
          "mode": 4
        }
      ]
    },
    {
      "name": "Tower_Glass_MT_0",
      "primitives": [
        {
          "attributes": {
            "NORMAL": 29,
            "POSITION": 28,
            "TANGENT": 30,
            "TEXCOORD_0": 31
          },
          "indices": 32,
          "material": 4,
          "mode": 4
        }
      ]
    }
  ],
  "nodes": [
    {
      "children": [
        1
      ],
      "name": "RootNode (gltf orientation matrix)",
      "rotation": [
        -0.70710678118654746,
        -0,
        -0,
        0.70710678118654757
      ]
    },
    {
      "children": [
        2
      ],
      "name": "RootNode (model correction matrix)"
    },
    {
      "children": [
        3
      ],
      "matrix": [
        1,
        0,
        0,
        0,
        0,
        0,
        1,
        0,
        0,
        -1,
        0,
        0,
        0,
        0,
        0,
        1
      ],
      "name": "2c284678f7ae41a7bc9e7a9136bf479f.fbx"
    },
    {
      "children": [
        4
      ],
      "name": "RootNode"
    },
    {
      "children": [
        5,
        6,
        7,
        8,
        9
      ],
      "matrix": [
        100,
        0,
        0,
        0,
        0,
        -1.6292067939183141e-05,
        -99.999999999998678,
        0,
        0,
        99.999999999998678,
        -1.6292067939183141e-05,
        0,
        6.3257808506023139e-05,
        756.07464599609375,
        3.3087406336562708e-05,
        1
      ],
      "name": "Tower"
    },
    {
      "mesh": 0,
      "name": "Tower_Brick_MT_0"
    },
    {
      "mesh": 1,
      "name": "Tower_Plaster_MT_0"
    },
    {
      "mesh": 2,
      "name": "Tower_Roof_MT_0"
    },
    {
      "mesh": 3,
      "name": "Tower_Details_MT_0"
    },
    {
      "mesh": 4,
      "name": "Tower_Glass_MT_0"
    }
  ],
  "samplers": [
    {
      "magFilter": 9729,
      "minFilter": 9987,
      "wrapS": 10497,
      "wrapT": 10497
    }
  ],
  "scene": 0,
  "scenes": [
    {
      "name": "OSG_Scene",
      "nodes": [
        0
      ]
    }
  ],
  "textures": [
    {
      "sampler": 0,
      "source": 0
    },
    {
      "sampler": 0,
      "source": 1
    },
    {
      "sampler": 0,
      "source": 2
    },
    {
      "sampler": 0,
      "source": 3
    },
    {
      "sampler": 0,
      "source": 4
    },
    {
      "sampler": 0,
      "source": 5
    },
    {
      "sampler": 0,
      "source": 6
    },
    {
      "sampler": 0,
      "source": 7
    },
    {
      "sampler": 0,
      "source": 8
    },
    {
      "sampler": 0,
      "source": 9
    },
    {
      "sampler": 0,
      "source": 10
    },
    {
      "sampler": 0,
      "source": 11
    }
  ]
}

