{
  "accessors": [
    {
      "bufferView": 2,
      "componentType": 5126,
      "count": 1586,
      "max": [
        212.84660339355469,
        118.09210205078125,
        93.860397338867188
      ],
      "min": [
        -5.5146999359130859,
        -31.961399078369141,
        -0.044300001114606857
      ],
      "type": "VEC3"
    },
    {
      "bufferView": 2,
      "byteOffset": 19032,
      "componentType": 5126,
      "count": 1586,
      "max": [
        0.98062843084335327,
        1,
        0.65957951545715332
      ],
      "min": [
        -0.97008585929870605,
        -1,
        -0.61415791511535645
      ],
      "type": "VEC3"
    },
    {
      "bufferView": 3,
      "componentType": 5126,
      "count": 1586,
      "max": [
        1,
        1,
        1,
        1
      ],
      "min": [
        -0.99689126014709473,
        -1,
        -0.99077087640762329,
        -1
      ],
      "type": "VEC4"
    },
    {
      "bufferView": 1,
      "componentType": 5126,
      "count": 1586,
      "max": [
        0.99479997158050537,
        1.8214999437332153
      ],
      "min": [
        -6.8368000984191895,
        0.015900000929832458
      ],
      "type": "VEC2"
    },
    {
      "bufferView": 0,
      "componentType": 5125,
      "count": 4410,
      "max": [
        1585
      ],
      "min": [
        0
      ],
      "type": "SCALAR"
    }
  ],
  "asset": {
    "extras": {
      "author": "ben.ford137 (https://sketchfab.com/ben.ford137)",
      "license": "CC-BY-4.0 (http://creativecommons.org/licenses/by/4.0/)",
      "source": "https://sketchfab.com/3d-models/medieval-castle-98bb6d8a0b2246cc9481b9f02ac655cc",
      "title": "Medieval castle."
    },
    "generator": "Sketchfab-7.31.0",
    "version": "2.0"
  },
  "bufferViews": [
    {
      "buffer": 0,
      "byteLength": 17640,
      "byteOffset": 0,
      "name": "floatBufferViews",
      "target": 34963
    },
    {
      "buffer": 0,
      "byteLength": 12688,
      "byteOffset": 17640,
      "byteStride": 8,
      "name": "floatBufferViews",
      "target": 34962
    },
    {
      "buffer": 0,
      "byteLength": 38064,
      "byteOffset": 30328,
      "byteStride": 12,
      "name": "floatBufferViews",
      "target": 34962
    },
    {
      "buffer": 0,
      "byteLength": 25376,
      "byteOffset": 68392,
      "byteStride": 16,
      "name": "floatBufferViews",
      "target": 34962
    }
  ],
  "buffers": [
    {
      "byteLength": 93768,
      "uri": "scene.bin"
    }
  ],
  "images": [
    {
      "uri": "textures/wire_027177088_baseColor.png"
    },
    {
      "uri": "textures/wire_027177088_metallicRoughness.png"
    },
    {
      "uri": "textures/wire_027177088_normal.png"
    }
  ],
  "materials": [
    {
      "doubleSided": true,
      "name": "wire_027177088",
      "normalTexture": {
        "index": 2,
        "scale": 1,
        "texCoord": 0
      },
      "pbrMetallicRoughness": {
        "baseColorFactor": [
          1,
          1,
          1,
          1
        ],
        "baseColorTexture": {
          "index": 0,
          "texCoord": 0
        },
        "metallicFactor": 1,
        "metallicRoughnessTexture": {
          "index": 1,
          "texCoord": 0
        },
        "roughnessFactor": 1
      }
    }
  ],
  "meshes": [
    {
      "primitives": [
        {
          "attributes": {
            "NORMAL": 1,
            "POSITION": 0,
            "TANGENT": 2,
            "TEXCOORD_0": 3
          },
          "indices": 4,
          "material": 0,
          "mode": 4
        }
      ]
    }
  ],
  "nodes": [
    {
      "children": [
        1
      ],
      "name": "RootNode (gltf orientation matrix)",
      "rotation": [
        -0.70710678118654746,
        -0,
        -0,
        0.70710678118654757
      ]
    },
    {
      "children": [
        2
      ],
      "name": "RootNode (model correction matrix)"
    },
    {
      "children": [
        3
      ],
      "name": "f3ee8d915fff4a77b9dc593346a53081.obj.cleaner.materialmerger.gles"
    },
    {
      "mesh": 0,
      "name": ""
    }
  ],
  "samplers": [
    {
      "magFilter": 9729,
      "minFilter": 9987,
      "wrapS": 10497,
      "wrapT": 10497
    }
  ],
  "scene": 0,
  "scenes": [
    {
      "name": "OSG_Scene",
      "nodes": [
        0
      ]
    }
  ],
  "textures": [
    {
      "sampler": 0,
      "source": 0
    },
    {
      "sampler": 0,
      "source": 1
    },
    {
      "sampler": 0,
      "source": 2
    }
  ]
}

