{
    "asset" : {
        "generator" : "Khronos glTF Blender I/O v1.7.33",
        "version" : "2.0"
    },
    "scene" : 0,
    "scenes" : [
        {
            "name" : "Scene",
            "nodes" : [
                1
            ]
        }
    ],
    "nodes" : [
        {
            "mesh" : 0,
            "name" : "node_Mountain3_-1129440",
            "translation" : [
                -200.60243225097656,
                105.71839141845703,
                -330.042236328125
            ]
        },
        {
            "children" : [
                0
            ],
            "name" : "UnityGlTF_root",
            "rotation" : [
                0,
                0.10371837764978409,
                0,
                0.9946067333221436
            ],
            "translation" : [
                259.73974609375,
                -110.18659210205078,
                286.89373779296875
            ]
        }
    ],
    "materials" : [
        {
            "doubleSided" : true,
            "name" : "Material.001",
            "pbrMetallicRoughness" : {
                "baseColorFactor" : [
                    0.22411376237869263,
                    0.14980563521385193,
                    0.06821142882108688,
                    1
                ],
                "metallicFactor" : 0
            }
        }
    ],
    "meshes" : [
        {
            "name" : "mesh_Group51674_12268Mountain3.001",
            "primitives" : [
                {
                    "attributes" : {
                        "POSITION" : 0,
                        "NORMAL" : 1,
                        "TEXCOORD_0" : 2
                    },
                    "indices" : 3,
                    "material" : 0
                }
            ]
        }
    ],
    "accessors" : [
        {
            "bufferView" : 0,
            "componentType" : 5126,
            "count" : 3099,
            "max" : [
                55.53683090209961,
                65.41851043701172,
                55.002376556396484
            ],
            "min" : [
                -54.624229431152344,
                3.999218225479126,
                -51.04667663574219
            ],
            "type" : "VEC3"
        },
        {
            "bufferView" : 1,
            "componentType" : 5126,
            "count" : 3099,
            "type" : "VEC3"
        },
        {
            "bufferView" : 2,
            "componentType" : 5126,
            "count" : 3099,
            "type" : "VEC2"
        },
        {
            "bufferView" : 3,
            "componentType" : 5123,
            "count" : 3285,
            "type" : "SCALAR"
        }
    ],
    "bufferViews" : [
        {
            "buffer" : 0,
            "byteLength" : 37188,
            "byteOffset" : 0
        },
        {
            "buffer" : 0,
            "byteLength" : 37188,
            "byteOffset" : 37188
        },
        {
            "buffer" : 0,
            "byteLength" : 24792,
            "byteOffset" : 74376
        },
        {
            "buffer" : 0,
            "byteLength" : 6570,
            "byteOffset" : 99168
        }
    ],
    "buffers" : [
        {
            "byteLength" : 105740,
            "uri" : "mnt.bin"
        }
    ]
}
