{
    "asset" : {
        "generator" : "Khronos glTF Blender I/O v1.7.33",
        "version" : "2.0"
    },
    "scene" : 0,
    "scenes" : [
        {
            "name" : "Scene",
            "nodes" : [
                0
            ]
        }
    ],
    "nodes" : [
        {
            "mesh" : 0,
            "name" : "Node",
            "rotation" : [
                0.7071068286895752,
                0,
                0,
                0.7071068286895752
            ],
            "scale" : [
                1.0076171159744263,
                1.0076171159744263,
                1.0076171159744263
            ]
        }
    ],
    "materials" : [
        {
            "doubleSided" : true,
            "name" : "SVGMat.044",
            "pbrMetallicRoughness" : {
                "baseColorFactor" : [
                    0.22696587443351746,
                    0.6104955673217773,
                    0.022173885256052017,
                    1
                ],
                "metallicFactor" : 0,
                "roughnessFactor" : 0.4000000059604645
            }
        },
        {
            "doubleSided" : true,
            "name" : "SVGMat.042",
            "pbrMetallicRoughness" : {
                "baseColorFactor" : [
                    0.22696587443351746,
                    0.6104955673217773,
                    0.022173885256052017,
                    1
                ],
                "metallicFactor" : 0,
                "roughnessFactor" : 0.4000000059604645
            }
        },
        {
            "doubleSided" : true,
            "name" : "SVGMat.043",
            "pbrMetallicRoughness" : {
                "baseColorFactor" : [
                    0.05126945674419403,
                    0.052860647439956665,
                    0.0382043719291687,
                    1
                ],
                "metallicFactor" : 0,
                "roughnessFactor" : 0.4000000059604645
            }
        }
    ],
    "meshes" : [
        {
            "name" : "Curve.036",
            "primitives" : [
                {
                    "attributes" : {
                        "POSITION" : 0
                    },
                    "indices" : 1,
                    "material" : 0
                },
                {
                    "attributes" : {
                        "POSITION" : 2
                    },
                    "indices" : 3,
                    "material" : 1
                },
                {
                    "attributes" : {
                        "POSITION" : 4
                    },
                    "indices" : 5,
                    "material" : 2
                }
            ]
        }
    ],
    "accessors" : [
        {
            "bufferView" : 0,
            "componentType" : 5126,
            "count" : 2739,
            "max" : [
                0.18576619029045105,
                0.017403706908226013,
                0.0708974301815033
            ],
            "min" : [
                -0.17613482475280762,
                -0.017403706908226013,
                -0.055204108357429504
            ],
            "type" : "VEC3"
        },
        {
            "bufferView" : 1,
            "componentType" : 5123,
            "count" : 4584,
            "type" : "SCALAR"
        },
        {
            "bufferView" : 2,
            "componentType" : 5126,
            "count" : 5317,
            "max" : [
                0.37990322709083557,
                0.017403706908226013,
                0.07089124619960785
            ],
            "min" : [
                0.2670697867870331,
                -0.017403706908226013,
                -0.05629391968250275
            ],
            "type" : "VEC3"
        },
        {
            "bufferView" : 3,
            "componentType" : 5123,
            "count" : 8760,
            "type" : "SCALAR"
        },
        {
            "bufferView" : 4,
            "componentType" : 5126,
            "count" : 9406,
            "max" : [
                0.2303846776485443,
                0.017403706908226013,
                0.07198797166347504
            ],
            "min" : [
                -0.3244641125202179,
                -0.017403706908226013,
                -0.12687431275844574
            ],
            "type" : "VEC3"
        },
        {
            "bufferView" : 5,
            "componentType" : 5123,
            "count" : 15240,
            "type" : "SCALAR"
        }
    ],
    "bufferViews" : [
        {
            "buffer" : 0,
            "byteLength" : 32868,
            "byteOffset" : 0
        },
        {
            "buffer" : 0,
            "byteLength" : 9168,
            "byteOffset" : 32868
        },
        {
            "buffer" : 0,
            "byteLength" : 63804,
            "byteOffset" : 42036
        },
        {
            "buffer" : 0,
            "byteLength" : 17520,
            "byteOffset" : 105840
        },
        {
            "buffer" : 0,
            "byteLength" : 112872,
            "byteOffset" : 123360
        },
        {
            "buffer" : 0,
            "byteLength" : 30480,
            "byteOffset" : 236232
        }
    ],
    "buffers" : [
        {
            "byteLength" : 266712,
            "uri" : "data:application/octet-stream;base64,"
        }
    ]
}
