{
    "asset" : {
        "generator" : "Khronos glTF Blender I/O v1.7.33",
        "version" : "2.0"
    },
    "scene" : 0,
    "scenes" : [
        {
            "name" : "Scene",
            "nodes" : [
                0,
                1
            ]
        }
    ],
    "nodes" : [
        {
            "mesh" : 0,
            "name" : "path8615",
            "scale" : [
                976.2091674804688,
                976.2091674804688,
                976.2091674804688
            ]
        },
        {
            "mesh" : 1,
            "name" : "path8620",
            "scale" : [
                976.2091674804688,
                976.2091674804688,
                976.2091674804688
            ]
        }
    ],
    "materials" : [
        {
            "doubleSided" : true,
            "name" : "Material.001",
            "pbrMetallicRoughness" : {
                "baseColorFactor" : [
                    0.03433983027935028,
                    0.16513223946094513,
                    0.3515326976776123,
                    1
                ],
                "metallicFactor" : 0,
                "roughnessFactor" : 0.5
            }
        },
        {
            "doubleSided" : true,
            "name" : "Material.002",
            "pbrMetallicRoughness" : {
                "baseColorFactor" : [
                    0.9215819835662842,
                    0.5088814496994019,
                    0.04091523587703705,
                    1
                ],
                "metallicFactor" : 0,
                "roughnessFactor" : 0.5
            }
        }
    ],
    "meshes" : [
        {
            "name" : "path8615",
            "primitives" : [
                {
                    "attributes" : {
                        "POSITION" : 0,
                        "NORMAL" : 1,
                        "TEXCOORD_0" : 2
                    },
                    "indices" : 3,
                    "material" : 0
                }
            ]
        },
        {
            "name" : "path8620",
            "primitives" : [
                {
                    "attributes" : {
                        "POSITION" : 4,
                        "NORMAL" : 5,
                        "TEXCOORD_0" : 6
                    },
                    "indices" : 7,
                    "material" : 1
                }
            ]
        }
    ],
    "accessors" : [
        {
            "bufferView" : 0,
            "componentType" : 5126,
            "count" : 1110,
            "max" : [
                0.023107632994651794,
                0.003999999724328518,
                0.023156389594078064
            ],
            "min" : [
                -3.725290298461914e-09,
                -0.003999999724328518,
                -3.725290298461914e-09
            ],
            "type" : "VEC3"
        },
        {
            "bufferView" : 1,
            "componentType" : 5126,
            "count" : 1110,
            "type" : "VEC3"
        },
        {
            "bufferView" : 2,
            "componentType" : 5126,
            "count" : 1110,
            "type" : "VEC2"
        },
        {
            "bufferView" : 3,
            "componentType" : 5123,
            "count" : 2064,
            "type" : "SCALAR"
        },
        {
            "bufferView" : 4,
            "componentType" : 5126,
            "count" : 1112,
            "max" : [
                0.03116391971707344,
                0.003999999724328518,
                0.030995093286037445
            ],
            "min" : [
                0.00805628765374422,
                -0.003999999724328518,
                0.007838698104023933
            ],
            "type" : "VEC3"
        },
        {
            "bufferView" : 5,
            "componentType" : 5126,
            "count" : 1112,
            "type" : "VEC3"
        },
        {
            "bufferView" : 6,
            "componentType" : 5126,
            "count" : 1112,
            "type" : "VEC2"
        },
        {
            "bufferView" : 7,
            "componentType" : 5123,
            "count" : 2064,
            "type" : "SCALAR"
        }
    ],
    "bufferViews" : [
        {
            "buffer" : 0,
            "byteLength" : 13320,
            "byteOffset" : 0
        },
        {
            "buffer" : 0,
            "byteLength" : 13320,
            "byteOffset" : 13320
        },
        {
            "buffer" : 0,
            "byteLength" : 8880,
            "byteOffset" : 26640
        },
        {
            "buffer" : 0,
            "byteLength" : 4128,
            "byteOffset" : 35520
        },
        {
            "buffer" : 0,
            "byteLength" : 13344,
            "byteOffset" : 39648
        },
        {
            "buffer" : 0,
            "byteLength" : 13344,
            "byteOffset" : 52992
        },
        {
            "buffer" : 0,
            "byteLength" : 8896,
            "byteOffset" : 66336
        },
        {
            "buffer" : 0,
            "byteLength" : 4128,
            "byteOffset" : 75232
        }
    ],
    "buffers" : [
        {
            "byteLength" : 79360,
            "uri" : "python.bin"
        }
    ]
}
