{
    "asset" : {
        "generator" : "Khronos glTF Blender I/O v1.7.33",
        "version" : "2.0"
    },
    "scene" : 0,
    "scenes" : [
        {
            "name" : "Scene",
            "nodes" : [
                0
            ]
        }
    ],
    "nodes" : [
        {
            "mesh" : 0,
            "name" : "Python",
            "rotation" : [
                0.7071068286895752,
                0,
                0,
                0.7071068286895752
            ],
            "scale" : [
                37.82362747192383,
                56.02455139160156,
                37.82362747192383
            ],
            "translation" : [
                0,
                0,
                0.07851844280958176
            ]
        }
    ],
    "materials" : [
        {
            "doubleSided" : true,
            "name" : "SVGMat.001",
            "pbrMetallicRoughness" : {
                "baseColorFactor" : [
                    0.0006070539820939302,
                    0.18447498977184296,
                    0.5088813304901123,
                    1
                ],
                "metallicFactor" : 0,
                "roughnessFactor" : 0.4000000059604645
            }
        },
        {
            "doubleSided" : true,
            "name" : "SVGMat.002",
            "pbrMetallicRoughness" : {
                "baseColorFactor" : [
                    1,
                    0.533276379108429,
                    0.002124688820913434,
                    1
                ],
                "metallicFactor" : 0,
                "roughnessFactor" : 0.4000000059604645
            }
        }
    ],
    "meshes" : [
        {
            "name" : "Curve",
            "primitives" : [
                {
                    "attributes" : {
                        "POSITION" : 0
                    },
                    "indices" : 1,
                    "material" : 0
                },
                {
                    "attributes" : {
                        "POSITION" : 2
                    },
                    "indices" : 3,
                    "material" : 1
                }
            ]
        }
    ],
    "accessors" : [
        {
            "bufferView" : 0,
            "componentType" : 5126,
            "count" : 1485,
            "max" : [
                0.002257916610687971,
                0,
                0.002821682021021843
            ],
            "min" : [
                -0.005362344905734062,
                -0.0028989354614168406,
                -0.005361201241612434
            ],
            "type" : "VEC3"
        },
        {
            "bufferView" : 1,
            "componentType" : 5123,
            "count" : 2508,
            "type" : "SCALAR"
        },
        {
            "bufferView" : 2,
            "componentType" : 5126,
            "count" : 1504,
            "max" : [
                0.005362529773265123,
                0,
                0.005361197516322136
            ],
            "min" : [
                -0.002258013468235731,
                -0.0028989354614168406,
                -0.002821684814989567
            ],
            "type" : "VEC3"
        },
        {
            "bufferView" : 3,
            "componentType" : 5123,
            "count" : 2508,
            "type" : "SCALAR"
        }
    ],
    "bufferViews" : [
        {
            "buffer" : 0,
            "byteLength" : 17820,
            "byteOffset" : 0
        },
        {
            "buffer" : 0,
            "byteLength" : 5016,
            "byteOffset" : 17820
        },
        {
            "buffer" : 0,
            "byteLength" : 18048,
            "byteOffset" : 22836
        },
        {
            "buffer" : 0,
            "byteLength" : 5016,
            "byteOffset" : 40884
        }
    ],
    "buffers" : [
        {
            "byteLength" : 45900,
            "uri" : "python.bin"
        }
    ]
}
