{
    "asset" : {
        "generator" : "Khronos glTF Blender I/O v1.7.33",
        "version" : "2.0"
    },
    "scene" : 0,
    "scenes" : [
        {
            "name" : "Scene",
            "nodes" : [
                0
            ]
        }
    ],
    "nodes" : [
        {
            "mesh" : 0,
            "name" : "React",
            "scale" : [
                -0.07519587129354477,
                -0.07519587129354477,
                -0.07519587129354477
            ]
        }
    ],
    "materials" : [
        {
            "doubleSided" : true,
            "name" : "Material.004",
            "pbrMetallicRoughness" : {
                "baseColorFactor" : [
                    0.10224157571792603,
                    0.6938719749450684,
                    0.9646864533424377,
                    1
                ],
                "metallicFactor" : 0,
                "roughnessFactor" : 0.5
            }
        }
    ],
    "meshes" : [
        {
            "name" : "Icosphere",
            "primitives" : [
                {
                    "attributes" : {
                        "POSITION" : 0
                    },
                    "indices" : 1,
                    "material" : 0
                }
            ]
        }
    ],
    "accessors" : [
        {
            "bufferView" : 0,
            "componentType" : 5126,
            "count" : 1974,
            "max" : [
                3.301227331161499,
                2.885723829269409,
                3.301227331161499
            ],
            "min" : [
                -3.301227331161499,
                -2.885723829269409,
                -3.301227331161499
            ],
            "type" : "VEC3"
        },
        {
            "bufferView" : 1,
            "componentType" : 5123,
            "count" : 10608,
            "type" : "SCALAR"
        }
    ],
    "bufferViews" : [
        {
            "buffer" : 0,
            "byteLength" : 23688,
            "byteOffset" : 0
        },
        {
            "buffer" : 0,
            "byteLength" : 21216,
            "byteOffset" : 23688
        }
    ],
    "buffers" : [
        {
            "byteLength" : 44904,
            "uri" : "react.bin"
        }
    ]
}
