{
    "asset" : {
        "generator" : "Khronos glTF Blender I/O v1.7.33",
        "version" : "2.0"
    },
    "scene" : 0,
    "scenes" : [
        {
            "name" : "Scene",
            "nodes" : [
                0,
                1,
                2,
                3,
                4
            ]
        }
    ],
    "nodes" : [
        {
            "mesh" : 0,
            "name" : "Plane",
            "scale" : [
                10,
                10,
                10
            ]
        },
        {
            "mesh" : 1,
            "name" : "Cylinder",
            "rotation" : [
                0,
                0.3826834559440613,
                0,
                0.9238795042037964
            ],
            "scale" : [
                0.8320000171661377,
                0.019999980926513672,
                0.8320000171661377
            ],
            "translation" : [
                0,
                0.13999998569488525,
                0
            ]
        },
        {
            "mesh" : 2,
            "name" : "Fountain",
            "scale" : [
                0.18597859144210815,
                0.05293891951441765,
                0.18597859144210815
            ],
            "translation" : [
                0,
                0.21071839332580566,
                0
            ]
        },
        {
            "mesh" : 3,
            "name" : "Tree",
            "scale" : [
                0.05218597501516342,
                0.37684157490730286,
                0.05218597501516342
            ],
            "translation" : [
                0.02101081795990467,
                0.36264485120773315,
                -3.5253989696502686
            ]
        },
        {
            "name" : "NurbsPath",
            "translation" : [
                3.221808910369873,
                0.05543548986315727,
                -1.5050785541534424
            ]
        }
    ],
    "materials" : [
        {
            "doubleSided" : true,
            "name" : "Grass",
            "pbrMetallicRoughness" : {
                "baseColorFactor" : [
                    0.2820851802825928,
                    0.42192208766937256,
                    0.07372815161943436,
                    1
                ],
                "metallicFactor" : 0
            }
        },
        {
            "doubleSided" : true,
            "name" : "Grass.001",
            "pbrMetallicRoughness" : {
                "baseColorFactor" : [
                    0.2632257044315338,
                    0.4357141852378845,
                    0.047074999660253525,
                    1
                ],
                "metallicFactor" : 0
            }
        },
        {
            "doubleSided" : true,
            "name" : "Path",
            "pbrMetallicRoughness" : {
                "baseColorFactor" : [
                    0.8000000715255737,
                    0.659489095211029,
                    0.27386289834976196,
                    1
                ],
                "metallicFactor" : 0
            }
        },
        {
            "doubleSided" : true,
            "name" : "Ground",
            "pbrMetallicRoughness" : {
                "baseColorFactor" : [
                    0.2642858028411865,
                    0.11096721142530441,
                    0.04105759412050247,
                    1
                ],
                "metallicFactor" : 0
            }
        },
        {
            "doubleSided" : true,
            "name" : "Boundary",
            "pbrMetallicRoughness" : {
                "baseColorFactor" : [
                    0.800000011920929,
                    0.800000011920929,
                    0.800000011920929,
                    1
                ],
                "metallicFactor" : 0
            }
        },
        {
            "doubleSided" : true,
            "name" : "Fountain",
            "pbrMetallicRoughness" : {
                "baseColorFactor" : [
                    0.800000011920929,
                    0.800000011920929,
                    0.800000011920929,
                    1
                ],
                "metallicFactor" : 0,
                "roughnessFactor" : 0.5
            }
        },
        {
            "doubleSided" : true,
            "name" : "Water",
            "pbrMetallicRoughness" : {
                "baseColorFactor" : [
                    0.22612348198890686,
                    0.7546489834785461,
                    0.8000000715255737,
                    1
                ],
                "metallicFactor" : 0,
                "roughnessFactor" : 0.5
            }
        },
        {
            "doubleSided" : true,
            "name" : "Wood",
            "pbrMetallicRoughness" : {
                "baseColorFactor" : [
                    0.271428644657135,
                    0.09637857973575592,
                    0.025945717468857765,
                    1
                ],
                "metallicFactor" : 0
            }
        },
        {
            "doubleSided" : true,
            "name" : "Tree",
            "pbrMetallicRoughness" : {
                "baseColorFactor" : [
                    0.1837417036294937,
                    0.37142863869667053,
                    0.04308346286416054,
                    1
                ],
                "metallicFactor" : 0
            }
        }
    ],
    "meshes" : [
        {
            "name" : "Plane.003",
            "primitives" : [
                {
                    "attributes" : {
                        "POSITION" : 0,
                        "NORMAL" : 1,
                        "TEXCOORD_0" : 2
                    },
                    "indices" : 3,
                    "material" : 0
                }
            ]
        },
        {
            "name" : "Cylinder.003",
            "primitives" : [
                {
                    "attributes" : {
                        "POSITION" : 4,
                        "NORMAL" : 5,
                        "TEXCOORD_0" : 6
                    },
                    "indices" : 7,
                    "material" : 1
                },
                {
                    "attributes" : {
                        "POSITION" : 8,
                        "NORMAL" : 9,
                        "TEXCOORD_0" : 10
                    },
                    "indices" : 11,
                    "material" : 2
                },
                {
                    "attributes" : {
                        "POSITION" : 12,
                        "NORMAL" : 13,
                        "TEXCOORD_0" : 14
                    },
                    "indices" : 15,
                    "material" : 3
                },
                {
                    "attributes" : {
                        "POSITION" : 16,
                        "NORMAL" : 17,
                        "TEXCOORD_0" : 18
                    },
                    "indices" : 19,
                    "material" : 4
                }
            ]
        },
        {
            "name" : "Cylinder",
            "primitives" : [
                {
                    "attributes" : {
                        "POSITION" : 20,
                        "NORMAL" : 21,
                        "TEXCOORD_0" : 22
                    },
                    "indices" : 23,
                    "material" : 5
                },
                {
                    "attributes" : {
                        "POSITION" : 24,
                        "NORMAL" : 25,
                        "TEXCOORD_0" : 26
                    },
                    "indices" : 27,
                    "material" : 6
                }
            ]
        },
        {
            "name" : "Cylinder.001",
            "primitives" : [
                {
                    "attributes" : {
                        "POSITION" : 28,
                        "NORMAL" : 29,
                        "TEXCOORD_0" : 30
                    },
                    "indices" : 31,
                    "material" : 7
                },
                {
                    "attributes" : {
                        "POSITION" : 32,
                        "NORMAL" : 33,
                        "TEXCOORD_0" : 34
                    },
                    "indices" : 35,
                    "material" : 8
                }
            ]
        }
    ],
    "accessors" : [
        {
            "bufferView" : 0,
            "componentType" : 5126,
            "count" : 4,
            "max" : [
                1,
                0,
                1
            ],
            "min" : [
                -1,
                0,
                -1
            ],
            "type" : "VEC3"
        },
        {
            "bufferView" : 1,
            "componentType" : 5126,
            "count" : 4,
            "type" : "VEC3"
        },
        {
            "bufferView" : 2,
            "componentType" : 5126,
            "count" : 4,
            "type" : "VEC2"
        },
        {
            "bufferView" : 3,
            "componentType" : 5123,
            "count" : 6,
            "type" : "SCALAR"
        },
        {
            "bufferView" : 4,
            "componentType" : 5126,
            "count" : 2154,
            "max" : [
                1.9542016983032227,
                2.000002861022949,
                1.9542016983032227
            ],
            "min" : [
                -1.9542016983032227,
                -7.9358134269714355,
                -1.9542016983032227
            ],
            "type" : "VEC3"
        },
        {
            "bufferView" : 5,
            "componentType" : 5126,
            "count" : 2154,
            "type" : "VEC3"
        },
        {
            "bufferView" : 6,
            "componentType" : 5126,
            "count" : 2154,
            "type" : "VEC2"
        },
        {
            "bufferView" : 7,
            "componentType" : 5123,
            "count" : 4704,
            "type" : "SCALAR"
        },
        {
            "bufferView" : 8,
            "componentType" : 5126,
            "count" : 157,
            "max" : [
                1.9542016983032227,
                1.0099033117294312,
                1.9542016983032227
            ],
            "min" : [
                -1.9542016983032227,
                -7.9358134269714355,
                -1.9542016983032227
            ],
            "type" : "VEC3"
        },
        {
            "bufferView" : 9,
            "componentType" : 5126,
            "count" : 157,
            "type" : "VEC3"
        },
        {
            "bufferView" : 10,
            "componentType" : 5126,
            "count" : 157,
            "type" : "VEC2"
        },
        {
            "bufferView" : 11,
            "componentType" : 5123,
            "count" : 336,
            "type" : "SCALAR"
        },
        {
            "bufferView" : 12,
            "componentType" : 5126,
            "count" : 1184,
            "max" : [
                1.9531245231628418,
                1.0000022649765015,
                1.9531245231628418
            ],
            "min" : [
                -1.9531245231628418,
                -7.000001430511475,
                -1.9531245231628418
            ],
            "type" : "VEC3"
        },
        {
            "bufferView" : 13,
            "componentType" : 5126,
            "count" : 1184,
            "type" : "VEC3"
        },
        {
            "bufferView" : 14,
            "componentType" : 5126,
            "count" : 1184,
            "type" : "VEC2"
        },
        {
            "bufferView" : 15,
            "componentType" : 5123,
            "count" : 1920,
            "type" : "SCALAR"
        },
        {
            "bufferView" : 16,
            "componentType" : 5126,
            "count" : 3220,
            "max" : [
                1.9348782300949097,
                2.000002861022949,
                1.9348782300949097
            ],
            "min" : [
                -1.9348782300949097,
                -5.000001430511475,
                -1.9348782300949097
            ],
            "type" : "VEC3"
        },
        {
            "bufferView" : 17,
            "componentType" : 5126,
            "count" : 3220,
            "type" : "VEC3"
        },
        {
            "bufferView" : 18,
            "componentType" : 5126,
            "count" : 3220,
            "type" : "VEC2"
        },
        {
            "bufferView" : 19,
            "componentType" : 5123,
            "count" : 5136,
            "type" : "SCALAR"
        },
        {
            "bufferView" : 20,
            "componentType" : 5126,
            "count" : 2587,
            "max" : [
                1,
                4.863649368286133,
                1
            ],
            "min" : [
                -1,
                -1.0494661331176758,
                -1
            ],
            "type" : "VEC3"
        },
        {
            "bufferView" : 21,
            "componentType" : 5126,
            "count" : 2587,
            "type" : "VEC3"
        },
        {
            "bufferView" : 22,
            "componentType" : 5126,
            "count" : 2587,
            "type" : "VEC2"
        },
        {
            "bufferView" : 23,
            "componentType" : 5123,
            "count" : 5274,
            "type" : "SCALAR"
        },
        {
            "bufferView" : 24,
            "componentType" : 5126,
            "count" : 538,
            "max" : [
                0.8995161652565002,
                4.863649368286133,
                0.8995161652565002
            ],
            "min" : [
                -0.8995161652565002,
                0.48840540647506714,
                -0.8995161652565002
            ],
            "type" : "VEC3"
        },
        {
            "bufferView" : 25,
            "componentType" : 5126,
            "count" : 538,
            "type" : "VEC3"
        },
        {
            "bufferView" : 26,
            "componentType" : 5126,
            "count" : 538,
            "type" : "VEC2"
        },
        {
            "bufferView" : 27,
            "componentType" : 5123,
            "count" : 858,
            "type" : "SCALAR"
        },
        {
            "bufferView" : 28,
            "componentType" : 5126,
            "count" : 192,
            "max" : [
                1.1701998710632324,
                1,
                1.1701934337615967
            ],
            "min" : [
                -1.1701998710632324,
                -1,
                -1.1702064275741577
            ],
            "type" : "VEC3"
        },
        {
            "bufferView" : 29,
            "componentType" : 5126,
            "count" : 192,
            "type" : "VEC3"
        },
        {
            "bufferView" : 30,
            "componentType" : 5126,
            "count" : 192,
            "type" : "VEC2"
        },
        {
            "bufferView" : 31,
            "componentType" : 5123,
            "count" : 372,
            "type" : "SCALAR"
        },
        {
            "bufferView" : 32,
            "componentType" : 5126,
            "count" : 240,
            "max" : [
                6.6103129386901855,
                1.7941484451293945,
                6.967646598815918
            ],
            "min" : [
                -6.6103129386901855,
                -0.1308930516242981,
                -6.933321952819824
            ],
            "type" : "VEC3"
        },
        {
            "bufferView" : 33,
            "componentType" : 5126,
            "count" : 240,
            "type" : "VEC3"
        },
        {
            "bufferView" : 34,
            "componentType" : 5126,
            "count" : 240,
            "type" : "VEC2"
        },
        {
            "bufferView" : 35,
            "componentType" : 5123,
            "count" : 240,
            "type" : "SCALAR"
        }
    ],
    "bufferViews" : [
        {
            "buffer" : 0,
            "byteLength" : 48,
            "byteOffset" : 0
        },
        {
            "buffer" : 0,
            "byteLength" : 48,
            "byteOffset" : 48
        },
        {
            "buffer" : 0,
            "byteLength" : 32,
            "byteOffset" : 96
        },
        {
            "buffer" : 0,
            "byteLength" : 12,
            "byteOffset" : 128
        },
        {
            "buffer" : 0,
            "byteLength" : 25848,
            "byteOffset" : 140
        },
        {
            "buffer" : 0,
            "byteLength" : 25848,
            "byteOffset" : 25988
        },
        {
            "buffer" : 0,
            "byteLength" : 17232,
            "byteOffset" : 51836
        },
        {
            "buffer" : 0,
            "byteLength" : 9408,
            "byteOffset" : 69068
        },
        {
            "buffer" : 0,
            "byteLength" : 1884,
            "byteOffset" : 78476
        },
        {
            "buffer" : 0,
            "byteLength" : 1884,
            "byteOffset" : 80360
        },
        {
            "buffer" : 0,
            "byteLength" : 1256,
            "byteOffset" : 82244
        },
        {
            "buffer" : 0,
            "byteLength" : 672,
            "byteOffset" : 83500
        },
        {
            "buffer" : 0,
            "byteLength" : 14208,
            "byteOffset" : 84172
        },
        {
            "buffer" : 0,
            "byteLength" : 14208,
            "byteOffset" : 98380
        },
        {
            "buffer" : 0,
            "byteLength" : 9472,
            "byteOffset" : 112588
        },
        {
            "buffer" : 0,
            "byteLength" : 3840,
            "byteOffset" : 122060
        },
        {
            "buffer" : 0,
            "byteLength" : 38640,
            "byteOffset" : 125900
        },
        {
            "buffer" : 0,
            "byteLength" : 38640,
            "byteOffset" : 164540
        },
        {
            "buffer" : 0,
            "byteLength" : 25760,
            "byteOffset" : 203180
        },
        {
            "buffer" : 0,
            "byteLength" : 10272,
            "byteOffset" : 228940
        },
        {
            "buffer" : 0,
            "byteLength" : 31044,
            "byteOffset" : 239212
        },
        {
            "buffer" : 0,
            "byteLength" : 31044,
            "byteOffset" : 270256
        },
        {
            "buffer" : 0,
            "byteLength" : 20696,
            "byteOffset" : 301300
        },
        {
            "buffer" : 0,
            "byteLength" : 10548,
            "byteOffset" : 321996
        },
        {
            "buffer" : 0,
            "byteLength" : 6456,
            "byteOffset" : 332544
        },
        {
            "buffer" : 0,
            "byteLength" : 6456,
            "byteOffset" : 339000
        },
        {
            "buffer" : 0,
            "byteLength" : 4304,
            "byteOffset" : 345456
        },
        {
            "buffer" : 0,
            "byteLength" : 1716,
            "byteOffset" : 349760
        },
        {
            "buffer" : 0,
            "byteLength" : 2304,
            "byteOffset" : 351476
        },
        {
            "buffer" : 0,
            "byteLength" : 2304,
            "byteOffset" : 353780
        },
        {
            "buffer" : 0,
            "byteLength" : 1536,
            "byteOffset" : 356084
        },
        {
            "buffer" : 0,
            "byteLength" : 744,
            "byteOffset" : 357620
        },
        {
            "buffer" : 0,
            "byteLength" : 2880,
            "byteOffset" : 358364
        },
        {
            "buffer" : 0,
            "byteLength" : 2880,
            "byteOffset" : 361244
        },
        {
            "buffer" : 0,
            "byteLength" : 1920,
            "byteOffset" : 364124
        },
        {
            "buffer" : 0,
            "byteLength" : 480,
            "byteOffset" : 366044
        }
    ],
    "buffers" : [
        {
            "byteLength" : 366524,
            "uri" : "scene.bin"
        }
    ]
}
