{
    "asset" : {
        "generator" : "Khronos glTF Blender I/O v1.7.33",
        "version" : "2.0"
    },
    "scene" : 0,
    "scenes" : [
        {
            "name" : "Scene",
            "nodes" : [
                0,
                1,
                2,
                3,
                4,
                5,
                6,
                7
            ]
        }
    ],
    "nodes" : [
        {
            "name" : "Image",
            "scale" : [
                2.1477279663085938,
                2.1477279663085938,
                2.1477279663085938
            ],
            "translation" : [
                0,
                0.00800000037997961,
                0
            ]
        },
        {
            "mesh" : 0,
            "name" : "Ground",
            "scale" : [
                10,
                10,
                12.5645112991333
            ]
        },
        {
            "mesh" : 1,
            "name" : "Path",
            "rotation" : [
                0,
                0,
                -0.7071067690849304,
                0.7071068286895752
            ],
            "scale" : [
                0.17574211955070496,
                0.320032000541687,
                0.08453153818845749
            ],
            "translation" : [
                -0.007291460409760475,
                -0.008031710982322693,
                0
            ]
        },
        {
            "name" : "Path Curve"
        },
        {
            "name" : "River Curve",
            "translation" : [
                0.0561375729739666,
                0,
                0
            ]
        },
        {
            "mesh" : 2,
            "name" : "River",
            "scale" : [
                0.04675804823637009,
                0.6136429309844971,
                0.4631817936897278
            ],
            "translation" : [
                -0.2461104691028595,
                0.001862349919974804,
                -0.5529076457023621
            ]
        },
        {
            "mesh" : 3,
            "name" : "Cylinder",
            "rotation" : [
                0,
                -0.17361971735954285,
                0,
                0.9848127961158752
            ],
            "scale" : [
                1,
                0.34293535351753235,
                1
            ],
            "translation" : [
                0,
                0.352164626121521,
                3.104882001876831
            ]
        },
        {
            "mesh" : 4,
            "name" : "Center",
            "rotation" : [
                0,
                -0.004978390410542488,
                0,
                0.9999876022338867
            ],
            "scale" : [
                1.8889445066452026,
                0.5258104801177979,
                1.3201956748962402
            ],
            "translation" : [
                -0.0021492219530045986,
                -0.02733170986175537,
                -0.44569480419158936
            ]
        }
    ],
    "materials" : [
        {
            "doubleSided" : true,
            "name" : "Grass",
            "pbrMetallicRoughness" : {
                "baseColorFactor" : [
                    0.1936430037021637,
                    0.46428585052490234,
                    0.055333904922008514,
                    1
                ],
                "metallicFactor" : 0
            }
        },
        {
            "doubleSided" : true,
            "name" : "Path",
            "pbrMetallicRoughness" : {
                "baseColorFactor" : [
                    0.5214282274246216,
                    0.33753153681755066,
                    0.08081468194723129,
                    1
                ],
                "metallicFactor" : 0
            }
        },
        {
            "doubleSided" : true,
            "name" : "Material.001",
            "pbrMetallicRoughness" : {
                "baseColorFactor" : [
                    0.15410497784614563,
                    0.8000000715255737,
                    0.8000000715255737,
                    1
                ],
                "metallicFactor" : 0,
                "roughnessFactor" : 0.5
            }
        },
        {
            "alphaMode" : "BLEND",
            "doubleSided" : true,
            "name" : "Material.002",
            "pbrMetallicRoughness" : {
                "baseColorFactor" : [
                    0.10310318320989609,
                    0.8000000715255737,
                    0.18204042315483093,
                    0
                ],
                "metallicFactor" : 0,
                "roughnessFactor" : 0.5
            }
        },
        {
            "doubleSided" : true,
            "name" : "Material.003",
            "pbrMetallicRoughness" : {
                "baseColorFactor" : [
                    0.2917707562446594,
                    0.10461650043725967,
                    0.008023202419281006,
                    1
                ],
                "metallicFactor" : 0,
                "roughnessFactor" : 0.5
            }
        }
    ],
    "meshes" : [
        {
            "name" : "Plane.001",
            "primitives" : [
                {
                    "attributes" : {
                        "POSITION" : 0,
                        "NORMAL" : 1,
                        "TEXCOORD_0" : 2
                    },
                    "indices" : 3,
                    "material" : 0
                }
            ]
        },
        {
            "name" : "Plane.003",
            "primitives" : [
                {
                    "attributes" : {
                        "POSITION" : 4,
                        "NORMAL" : 5,
                        "TEXCOORD_0" : 6
                    },
                    "indices" : 7,
                    "material" : 1
                }
            ]
        },
        {
            "name" : "Cube.001",
            "primitives" : [
                {
                    "attributes" : {
                        "POSITION" : 8,
                        "NORMAL" : 9,
                        "TEXCOORD_0" : 10
                    },
                    "indices" : 11,
                    "material" : 2
                },
                {
                    "attributes" : {
                        "POSITION" : 12,
                        "NORMAL" : 13,
                        "TEXCOORD_0" : 14
                    },
                    "indices" : 15,
                    "material" : 3
                },
                {
                    "attributes" : {
                        "POSITION" : 16,
                        "NORMAL" : 17,
                        "TEXCOORD_0" : 18
                    },
                    "indices" : 19,
                    "material" : 4
                }
            ]
        },
        {
            "name" : "Cylinder",
            "primitives" : [
                {
                    "attributes" : {
                        "POSITION" : 20,
                        "NORMAL" : 21,
                        "TEXCOORD_0" : 22
                    },
                    "indices" : 23
                }
            ]
        },
        {
            "name" : "Plane.002",
            "primitives" : [
                {
                    "attributes" : {
                        "POSITION" : 24,
                        "NORMAL" : 25,
                        "TEXCOORD_0" : 26
                    },
                    "indices" : 27,
                    "material" : 1
                }
            ]
        }
    ],
    "accessors" : [
        {
            "bufferView" : 0,
            "componentType" : 5126,
            "count" : 179,
            "max" : [
                0.4999999701976776,
                0,
                0.5
            ],
            "min" : [
                -0.4999999701976776,
                -0.006335956044495106,
                -0.5
            ],
            "type" : "VEC3"
        },
        {
            "bufferView" : 1,
            "componentType" : 5126,
            "count" : 179,
            "type" : "VEC3"
        },
        {
            "bufferView" : 2,
            "componentType" : 5126,
            "count" : 179,
            "type" : "VEC2"
        },
        {
            "bufferView" : 3,
            "componentType" : 5123,
            "count" : 519,
            "type" : "SCALAR"
        },
        {
            "bufferView" : 4,
            "componentType" : 5126,
            "count" : 7680,
            "max" : [
                0.041491616517305374,
                15.145285606384277,
                42.486202239990234
            ],
            "min" : [
                -0.06493604183197021,
                -3.967468738555908,
                -32.79441833496094
            ],
            "type" : "VEC3"
        },
        {
            "bufferView" : 5,
            "componentType" : 5126,
            "count" : 7680,
            "type" : "VEC3"
        },
        {
            "bufferView" : 6,
            "componentType" : 5126,
            "count" : 7680,
            "type" : "VEC2"
        },
        {
            "bufferView" : 7,
            "componentType" : 5123,
            "count" : 11520,
            "type" : "SCALAR"
        },
        {
            "bufferView" : 8,
            "componentType" : 5126,
            "count" : 7308,
            "max" : [
                115.79335021972656,
                -0.10615576803684235,
                2.32657790184021
            ],
            "min" : [
                -108.09805297851562,
                -1.0000003576278687,
                -8.626091957092285
            ],
            "type" : "VEC3"
        },
        {
            "bufferView" : 9,
            "componentType" : 5126,
            "count" : 7308,
            "type" : "VEC3"
        },
        {
            "bufferView" : 10,
            "componentType" : 5126,
            "count" : 7308,
            "type" : "VEC2"
        },
        {
            "bufferView" : 11,
            "componentType" : 5123,
            "count" : 12852,
            "type" : "SCALAR"
        },
        {
            "bufferView" : 12,
            "componentType" : 5126,
            "count" : 4018,
            "max" : [
                115.79335021972656,
                1.000000238418579,
                2.32657790184021
            ],
            "min" : [
                -108.09805297851562,
                -0.10628656297922134,
                -8.626091957092285
            ],
            "type" : "VEC3"
        },
        {
            "bufferView" : 13,
            "componentType" : 5126,
            "count" : 4018,
            "type" : "VEC3"
        },
        {
            "bufferView" : 14,
            "componentType" : 5126,
            "count" : 4018,
            "type" : "VEC2"
        },
        {
            "bufferView" : 15,
            "componentType" : 5123,
            "count" : 6048,
            "type" : "SCALAR"
        },
        {
            "bufferView" : 16,
            "componentType" : 5126,
            "count" : 1008,
            "max" : [
                115.79335021972656,
                1.8975697457790375e-07,
                2.32657790184021
            ],
            "min" : [
                -108.09805297851562,
                -0.10628656297922134,
                -8.626091957092285
            ],
            "type" : "VEC3"
        },
        {
            "bufferView" : 17,
            "componentType" : 5126,
            "count" : 1008,
            "type" : "VEC3"
        },
        {
            "bufferView" : 18,
            "componentType" : 5126,
            "count" : 1008,
            "type" : "VEC2"
        },
        {
            "bufferView" : 19,
            "componentType" : 5123,
            "count" : 1512,
            "type" : "SCALAR"
        },
        {
            "bufferView" : 20,
            "componentType" : 5126,
            "count" : 94,
            "max" : [
                0.9510565400123596,
                1,
                1
            ],
            "min" : [
                -0.9510564804077148,
                -1,
                -1
            ],
            "type" : "VEC3"
        },
        {
            "bufferView" : 21,
            "componentType" : 5126,
            "count" : 94,
            "type" : "VEC3"
        },
        {
            "bufferView" : 22,
            "componentType" : 5126,
            "count" : 94,
            "type" : "VEC2"
        },
        {
            "bufferView" : 23,
            "componentType" : 5123,
            "count" : 210,
            "type" : "SCALAR"
        },
        {
            "bufferView" : 24,
            "componentType" : 5126,
            "count" : 114,
            "max" : [
                0.34756678342819214,
                0.0584421269595623,
                0.4350084960460663
            ],
            "min" : [
                -0.367316335439682,
                0.02949117310345173,
                -0.39888280630111694
            ],
            "type" : "VEC3"
        },
        {
            "bufferView" : 25,
            "componentType" : 5126,
            "count" : 114,
            "type" : "VEC3"
        },
        {
            "bufferView" : 26,
            "componentType" : 5126,
            "count" : 114,
            "type" : "VEC2"
        },
        {
            "bufferView" : 27,
            "componentType" : 5123,
            "count" : 216,
            "type" : "SCALAR"
        }
    ],
    "bufferViews" : [
        {
            "buffer" : 0,
            "byteLength" : 2148,
            "byteOffset" : 0
        },
        {
            "buffer" : 0,
            "byteLength" : 2148,
            "byteOffset" : 2148
        },
        {
            "buffer" : 0,
            "byteLength" : 1432,
            "byteOffset" : 4296
        },
        {
            "buffer" : 0,
            "byteLength" : 1038,
            "byteOffset" : 5728
        },
        {
            "buffer" : 0,
            "byteLength" : 92160,
            "byteOffset" : 6768
        },
        {
            "buffer" : 0,
            "byteLength" : 92160,
            "byteOffset" : 98928
        },
        {
            "buffer" : 0,
            "byteLength" : 61440,
            "byteOffset" : 191088
        },
        {
            "buffer" : 0,
            "byteLength" : 23040,
            "byteOffset" : 252528
        },
        {
            "buffer" : 0,
            "byteLength" : 87696,
            "byteOffset" : 275568
        },
        {
            "buffer" : 0,
            "byteLength" : 87696,
            "byteOffset" : 363264
        },
        {
            "buffer" : 0,
            "byteLength" : 58464,
            "byteOffset" : 450960
        },
        {
            "buffer" : 0,
            "byteLength" : 25704,
            "byteOffset" : 509424
        },
        {
            "buffer" : 0,
            "byteLength" : 48216,
            "byteOffset" : 535128
        },
        {
            "buffer" : 0,
            "byteLength" : 48216,
            "byteOffset" : 583344
        },
        {
            "buffer" : 0,
            "byteLength" : 32144,
            "byteOffset" : 631560
        },
        {
            "buffer" : 0,
            "byteLength" : 12096,
            "byteOffset" : 663704
        },
        {
            "buffer" : 0,
            "byteLength" : 12096,
            "byteOffset" : 675800
        },
        {
            "buffer" : 0,
            "byteLength" : 12096,
            "byteOffset" : 687896
        },
        {
            "buffer" : 0,
            "byteLength" : 8064,
            "byteOffset" : 699992
        },
        {
            "buffer" : 0,
            "byteLength" : 3024,
            "byteOffset" : 708056
        },
        {
            "buffer" : 0,
            "byteLength" : 1128,
            "byteOffset" : 711080
        },
        {
            "buffer" : 0,
            "byteLength" : 1128,
            "byteOffset" : 712208
        },
        {
            "buffer" : 0,
            "byteLength" : 752,
            "byteOffset" : 713336
        },
        {
            "buffer" : 0,
            "byteLength" : 420,
            "byteOffset" : 714088
        },
        {
            "buffer" : 0,
            "byteLength" : 1368,
            "byteOffset" : 714508
        },
        {
            "buffer" : 0,
            "byteLength" : 1368,
            "byteOffset" : 715876
        },
        {
            "buffer" : 0,
            "byteLength" : 912,
            "byteOffset" : 717244
        },
        {
            "buffer" : 0,
            "byteLength" : 432,
            "byteOffset" : 718156
        }
    ],
    "buffers" : [
        {
            "byteLength" : 718588,
            "uri" : "untitled.bin"
        }
    ]
}
