{
  "accessors": [
    {
      "bufferView": 2,
      "componentType": 5126,
      "count": 32,
      "max": [
        2.8370890617370605,
        1.8223570585250854,
        2.1738829612731934
      ],
      "min": [
        1.8131489753723145,
        -0.373881995677948,
        1.2662630081176758
      ],
      "type": "VEC3"
    },
    {
      "bufferView": 2,
      "byteOffset": 384,
      "componentType": 5126,
      "count": 32,
      "max": [
        1,
        -0,
        0.81915682554244995
      ],
      "min": [
        0.57356977462768555,
        -0,
        0
      ],
      "type": "VEC3"
    },
    {
      "bufferView": 3,
      "componentType": 5126,
      "count": 32,
      "max": [
        0.8191567063331604,
        0,
        0,
        1
      ],
      "min": [
        0,
        0,
        -0.57356977462768555,
        1
      ],
      "type": "VEC4"
    },
    {
      "bufferView": 1,
      "componentType": 5126,
      "count": 32,
      "max": [
        1,
        1
      ],
      "min": [
        0.375,
        0
      ],
      "type": "VEC2"
    },
    {
      "bufferView": 0,
      "componentType": 5125,
      "count": 48,
      "max": [
        31
      ],
      "min": [
        0
      ],
      "type": "SCALAR"
    },
    {
      "bufferView": 2,
      "byteOffset": 768,
      "componentType": 5126,
      "count": 24,
      "max": [
        2.8370890617370605,
        1.5086090564727783,
        2.1738829612731934
      ],
      "min": [
        1.8131489753723145,
        -0.06013299897313118,
        1.2662630081176758
      ],
      "type": "VEC3"
    },
    {
      "bufferView": 2,
      "byteOffset": 1056,
      "componentType": 5126,
      "count": 24,
      "max": [
        1,
        -0,
        0.81915682554244995
      ],
      "min": [
        0.57356977462768555,
        -0,
        0
      ],
      "type": "VEC3"
    },
    {
      "bufferView": 3,
      "byteOffset": 512,
      "componentType": 5126,
      "count": 24,
      "max": [
        0.8191567063331604,
        0,
        0,
        1
      ],
      "min": [
        0,
        0,
        -0.57356971502304077,
        1
      ],
      "type": "VEC4"
    },
    {
      "bufferView": 1,
      "byteOffset": 256,
      "componentType": 5126,
      "count": 24,
      "max": [
        1,
        0.85714298486709595
      ],
      "min": [
        0.375,
        0.14285700023174286
      ],
      "type": "VEC2"
    },
    {
      "bufferView": 0,
      "byteOffset": 192,
      "componentType": 5125,
      "count": 36,
      "max": [
        23
      ],
      "min": [
        0
      ],
      "type": "SCALAR"
    },
    {
      "bufferView": 2,
      "byteOffset": 1344,
      "componentType": 5126,
      "count": 348,
      "max": [
        1.9271359443664551,
        1.7164969444274902,
        1.9952750205993652
      ],
      "min": [
        1.7659189701080322,
        -1.343701958656311,
        0.71952497959136963
      ],
      "type": "VEC3"
    },
    {
      "bufferView": 2,
      "byteOffset": 5520,
      "componentType": 5126,
      "count": 348,
      "max": [
        0.99999678134918213,
        0.25438868999481201,
        0.2794991135597229
      ],
      "min": [
        0.92818886041641235,
        -0.23939307034015656,
        -0.29680302739143372
      ],
      "type": "VEC3"
    },
    {
      "bufferView": 3,
      "byteOffset": 896,
      "componentType": 5126,
      "count": 348,
      "max": [
        0.30231460928916931,
        0.99996966123580933,
        0.99999666213989258,
        1
      ],
      "min": [
        -0.28220438957214355,
        0,
        -2.9708883175771916e-06,
        1
      ],
      "type": "VEC4"
    },
    {
      "bufferView": 1,
      "byteOffset": 448,
      "componentType": 5126,
      "count": 348,
      "max": [
        0.58220797777175903,
        0.70833301544189453
      ],
      "min": [
        0.47226798534393311,
        0.51767599582672119
      ],
      "type": "VEC2"
    },
    {
      "bufferView": 0,
      "byteOffset": 336,
      "componentType": 5125,
      "count": 348,
      "max": [
        347
      ],
      "min": [
        0
      ],
      "type": "SCALAR"
    },
    {
      "bufferView": 2,
      "byteOffset": 9696,
      "componentType": 5126,
      "count": 82,
      "max": [
        1.4802099466323853,
        0.092793002724647522,
        4.1839709281921387
      ],
      "min": [
        -0.059785999357700348,
        -1.4802520275115967,
        1.8882609605789185
      ],
      "type": "VEC3"
    },
    {
      "bufferView": 2,
      "byteOffset": 10680,
      "componentType": 5126,
      "count": 82,
      "max": [
        0.87368232011795044,
        0.94985729455947876,
        0.92050427198410034
      ],
      "min": [
        -0.93111032247543335,
        -0.92782014608383179,
        -0.92050427198410034
      ],
      "type": "VEC3"
    },
    {
      "bufferView": 3,
      "byteOffset": 6464,
      "componentType": 5126,
      "count": 82,
      "max": [
        0.94564485549926758,
        0.92783105373382568,
        0.38013491034507751,
        1
      ],
      "min": [
        -0.87364888191223145,
        -0.92783105373382568,
        -0.38013523817062378,
        1
      ],
      "type": "VEC4"
    },
    {
      "bufferView": 1,
      "byteOffset": 3232,
      "componentType": 5126,
      "count": 82,
      "max": [
        1,
        1
      ],
      "min": [
        0,
        0.0099999997764825821
      ],
      "type": "VEC2"
    },
    {
      "bufferView": 0,
      "byteOffset": 1728,
      "componentType": 5125,
      "count": 138,
      "max": [
        81
      ],
      "min": [
        0
      ],
      "type": "SCALAR"
    },
    {
      "bufferView": 2,
      "byteOffset": 11664,
      "componentType": 5126,
      "count": 448,
      "max": [
        1.4416730403900146,
        1.4836610555648804,
        4.0435099601745605
      ],
      "min": [
        0.18960699439048767,
        0.22128699719905853,
        1.8406469821929932
      ],
      "type": "VEC3"
    },
    {
      "bufferView": 2,
      "byteOffset": 17040,
      "componentType": 5126,
      "count": 448,
      "max": [
        0.98098260164260864,
        0.93107783794403076,
        0.96219938993453979
      ],
      "min": [
        -0.98770588636398315,
        -0.98238348960876465,
        -0.9653201699256897
      ],
      "type": "VEC3"
    },
    {
      "bufferView": 3,
      "byteOffset": 7776,
      "componentType": 5126,
      "count": 448,
      "max": [
        0.99261045455932617,
        0.93105602264404297,
        0.32973518967628479,
        1
      ],
      "min": [
        -0.98098969459533691,
        -0.93105554580688477,
        -0.32974192500114441,
        1
      ],
      "type": "VEC4"
    },
    {
      "bufferView": 1,
      "byteOffset": 3888,
      "componentType": 5126,
      "count": 448,
      "max": [
        1,
        1
      ],
      "min": [
        0,
        0.0099999997764825821
      ],
      "type": "VEC2"
    },
    {
      "bufferView": 0,
      "byteOffset": 2280,
      "componentType": 5125,
      "count": 666,
      "max": [
        447
      ],
      "min": [
        0
      ],
      "type": "SCALAR"
    },
    {
      "bufferView": 2,
      "byteOffset": 22416,
      "componentType": 5126,
      "count": 30,
      "max": [
        1.952564001083374,
        -0.69446498155593872,
        1.9180599451065063
      ],
      "min": [
        1.8999999761581421,
        -1.5353360176086426,
        0
      ],
      "type": "VEC3"
    },
    {
      "bufferView": 2,
      "byteOffset": 22776,
      "componentType": 5126,
      "count": 30,
      "max": [
        1,
        0.50546801090240479,
        0.5161125659942627
      ],
      "min": [
        0.85652083158493042,
        -0.50546801090240479,
        -0.5161125659942627
      ],
      "type": "VEC3"
    },
    {
      "bufferView": 3,
      "byteOffset": 14944,
      "componentType": 5126,
      "count": 30,
      "max": [
        0,
        0,
        1,
        1
      ],
      "min": [
        0,
        0,
        0,
        1
      ],
      "type": "VEC4"
    },
    {
      "bufferView": 1,
      "byteOffset": 7472,
      "componentType": 5126,
      "count": 30,
      "max": [
        0.47226798534393311,
        0.70833301544189453
      ],
      "min": [
        0.25,
        0.66666698455810547
      ],
      "type": "VEC2"
    },
    {
      "bufferView": 0,
      "byteOffset": 4944,
      "componentType": 5125,
      "count": 54,
      "max": [
        29
      ],
      "min": [
        0
      ],
      "type": "SCALAR"
    },
    {
      "bufferView": 2,
      "byteOffset": 23136,
      "componentType": 5126,
      "count": 219,
      "max": [
        2,
        2,
        4.7473311424255371
      ],
      "min": [
        -2,
        -2,
        0.14003300666809082
      ],
      "type": "VEC3"
    },
    {
      "bufferView": 2,
      "byteOffset": 25764,
      "componentType": 5126,
      "count": 219,
      "max": [
        1,
        1,
        0.98410290479660034
      ],
      "min": [
        -1,
        -1,
        -1
      ],
      "type": "VEC3"
    },
    {
      "bufferView": 3,
      "byteOffset": 15424,
      "componentType": 5126,
      "count": 219,
      "max": [
        0.99921333789825439,
        0.93959641456604004,
        1,
        1
      ],
      "min": [
        -0.99921339750289917,
        -0.93959659337997437,
        -0.43154951930046082,
        -1
      ],
      "type": "VEC4"
    },
    {
      "bufferView": 1,
      "byteOffset": 7712,
      "componentType": 5126,
      "count": 219,
      "max": [
        1,
        1
      ],
      "min": [
        0,
        0
      ],
      "type": "VEC2"
    },
    {
      "bufferView": 0,
      "byteOffset": 5160,
      "componentType": 5125,
      "count": 252,
      "max": [
        218
      ],
      "min": [
        0
      ],
      "type": "SCALAR"
    },
    {
      "bufferView": 2,
      "byteOffset": 28392,
      "componentType": 5126,
      "count": 114,
      "max": [
        2.1406729221343994,
        1.7600220441818237,
        3.5459349155426025
      ],
      "min": [
        1.7846440076828003,
        -1.7070889472961426,
        0.50291299819946289
      ],
      "type": "VEC3"
    },
    {
      "bufferView": 2,
      "byteOffset": 29760,
      "componentType": 5126,
      "count": 114,
      "max": [
        1,
        1,
        1
      ],
      "min": [
        0,
        -1,
        -1
      ],
      "type": "VEC3"
    },
    {
      "bufferView": 3,
      "byteOffset": 18928,
      "componentType": 5126,
      "count": 114,
      "max": [
        1,
        0,
        1,
        1
      ],
      "min": [
        -1,
        0,
        0,
        1
      ],
      "type": "VEC4"
    },
    {
      "bufferView": 1,
      "byteOffset": 9464,
      "componentType": 5126,
      "count": 114,
      "max": [
        0.875,
        1
      ],
      "min": [
        0.125,
        0.25
      ],
      "type": "VEC2"
    },
    {
      "bufferView": 0,
      "byteOffset": 6168,
      "componentType": 5125,
      "count": 180,
      "max": [
        113
      ],
      "min": [
        0
      ],
      "type": "SCALAR"
    },
    {
      "bufferView": 2,
      "byteOffset": 31128,
      "componentType": 5126,
      "count": 814,
      "max": [
        1.9132410287857056,
        1.3071039915084839,
        3.3567430973052979
      ],
      "min": [
        1.6932410001754761,
        -1.2178889513015747,
        2.7186911106109619
      ],
      "type": "VEC3"
    },
    {
      "bufferView": 2,
      "byteOffset": 40896,
      "componentType": 5126,
      "count": 814,
      "max": [
        1,
        1,
        1
      ],
      "min": [
        0,
        -1,
        -1
      ],
      "type": "VEC3"
    },
    {
      "bufferView": 0,
      "byteOffset": 6888,
      "componentType": 5125,
      "count": 1992,
      "max": [
        813
      ],
      "min": [
        0
      ],
      "type": "SCALAR"
    },
    {
      "bufferView": 2,
      "byteOffset": 50664,
      "componentType": 5126,
      "count": 1282,
      "max": [
        2.43019700050354,
        2.2032029628753662,
        5.4662041664123535
      ],
      "min": [
        -2.2032029628753662,
        -2.2032029628753662,
        0
      ],
      "type": "VEC3"
    },
    {
      "bufferView": 2,
      "byteOffset": 66048,
      "componentType": 5126,
      "count": 1282,
      "max": [
        1,
        1,
        1
      ],
      "min": [
        -1,
        -1,
        -1
      ],
      "type": "VEC3"
    },
    {
      "bufferView": 3,
      "byteOffset": 20752,
      "componentType": 5126,
      "count": 1282,
      "max": [
        1,
        0.97451502084732056,
        1,
        1
      ],
      "min": [
        -1,
        -0.97198700904846191,
        -0.46667489409446716,
        -1
      ],
      "type": "VEC4"
    },
    {
      "bufferView": 1,
      "byteOffset": 10376,
      "componentType": 5126,
      "count": 1282,
      "max": [
        1,
        1
      ],
      "min": [
        0,
        0
      ],
      "type": "VEC2"
    },
    {
      "bufferView": 0,
      "byteOffset": 14856,
      "componentType": 5125,
      "count": 1971,
      "max": [
        1281
      ],
      "min": [
        0
      ],
      "type": "SCALAR"
    }
  ],
  "asset": {
    "extras": {
      "author": "Ivan Norman (https://sketchfab.com/vanidza)",
      "license": "CC-BY-4.0 (http://creativecommons.org/licenses/by/4.0/)",
      "source": "https://sketchfab.com/3d-models/candy-shop-51411d40093346b8ac1b6d1224fd8b25",
      "title": "Candy Shop"
    },
    "generator": "Sketchfab-6.91.0",
    "version": "2.0"
  },
  "bufferViews": [
    {
      "buffer": 0,
      "byteLength": 22740,
      "byteOffset": 0,
      "name": "floatBufferViews",
      "target": 34963
    },
    {
      "buffer": 0,
      "byteLength": 20632,
      "byteOffset": 22740,
      "byteStride": 8,
      "name": "floatBufferViews",
      "target": 34962
    },
    {
      "buffer": 0,
      "byteLength": 81432,
      "byteOffset": 43372,
      "byteStride": 12,
      "name": "floatBufferViews",
      "target": 34962
    },
    {
      "buffer": 0,
      "byteLength": 41264,
      "byteOffset": 124804,
      "byteStride": 16,
      "name": "floatBufferViews",
      "target": 34962
    }
  ],
  "buffers": [
    {
      "byteLength": 166068,
      "uri": "scene.bin"
    }
  ],
  "materials": [
    {
      "doubleSided": true,
      "name": "Canopy_pink",
      "pbrMetallicRoughness": {
        "baseColorFactor": [
          0.70837577989168654,
          0.19461783044157571,
          0.52099557320435408,
          1
        ],
        "metallicFactor": 0,
        "roughnessFactor": 1
      }
    },
    {
      "doubleSided": true,
      "name": "Canopy_yellow",
      "pbrMetallicRoughness": {
        "baseColorFactor": [
          0.82278575439628332,
          0.67954246963309384,
          0.33245153634617935,
          1
        ],
        "metallicFactor": 0,
        "roughnessFactor": 1
      }
    },
    {
      "doubleSided": true,
      "name": "Glass",
      "pbrMetallicRoughness": {
        "baseColorFactor": [
          0.078187421805186327,
          0.0085681256180693034,
          0.054480276442442396,
          1
        ],
        "metallicFactor": 0,
        "roughnessFactor": 0
      }
    },
    {
      "doubleSided": true,
      "name": "Ice_cream_cup_1",
      "pbrMetallicRoughness": {
        "baseColorFactor": [
          0.7758222183174236,
          0.44520119451622786,
          0.17144110073282254,
          1
        ],
        "metallicFactor": 0,
        "roughnessFactor": 1
      }
    },
    {
      "doubleSided": true,
      "name": "Ice_cream_cup_2",
      "pbrMetallicRoughness": {
        "baseColorFactor": [
          0.83879901174074001,
          0.68668531243531328,
          0.52099557320435408,
          1
        ],
        "metallicFactor": 0,
        "roughnessFactor": 1
      }
    },
    {
      "doubleSided": true,
      "name": "Orange",
      "pbrMetallicRoughness": {
        "baseColorFactor": [
          0.67954246963309384,
          0.17788841598362931,
          0.17464740365558498,
          1
        ],
        "metallicFactor": 0,
        "roughnessFactor": 1
      }
    },
    {
      "doubleSided": true,
      "name": "Pink",
      "pbrMetallicRoughness": {
        "baseColorFactor": [
          0.78353779152619329,
          0.39675523072562685,
          0.58407841789116399,
          1
        ],
        "metallicFactor": 0,
        "roughnessFactor": 1
      }
    },
    {
      "doubleSided": true,
      "name": "Violet",
      "pbrMetallicRoughness": {
        "baseColorFactor": [
          0.5457244613701866,
          0.088655586285772942,
          0.37626212299090633,
          1
        ],
        "metallicFactor": 0,
        "roughnessFactor": 1
      }
    },
    {
      "doubleSided": true,
      "name": "White",
      "pbrMetallicRoughness": {
        "baseColorFactor": [
          0.8069522576692516,
          0.81484657221610124,
          0.83076987677465464,
          1
        ],
        "metallicFactor": 0,
        "roughnessFactor": 1
      }
    }
  ],
  "meshes": [
    {
      "primitives": [
        {
          "attributes": {
            "NORMAL": 1,
            "POSITION": 0,
            "TANGENT": 2,
            "TEXCOORD_0": 3
          },
          "indices": 4,
          "material": 0,
          "mode": 4
        }
      ]
    },
    {
      "primitives": [
        {
          "attributes": {
            "NORMAL": 6,
            "POSITION": 5,
            "TANGENT": 7,
            "TEXCOORD_0": 8
          },
          "indices": 9,
          "material": 1,
          "mode": 4
        }
      ]
    },
    {
      "primitives": [
        {
          "attributes": {
            "NORMAL": 11,
            "POSITION": 10,
            "TANGENT": 12,
            "TEXCOORD_0": 13
          },
          "indices": 14,
          "material": 2,
          "mode": 4
        }
      ]
    },
    {
      "primitives": [
        {
          "attributes": {
            "NORMAL": 16,
            "POSITION": 15,
            "TANGENT": 17,
            "TEXCOORD_0": 18
          },
          "indices": 19,
          "material": 3,
          "mode": 4
        }
      ]
    },
    {
      "primitives": [
        {
          "attributes": {
            "NORMAL": 21,
            "POSITION": 20,
            "TANGENT": 22,
            "TEXCOORD_0": 23
          },
          "indices": 24,
          "material": 4,
          "mode": 4
        }
      ]
    },
    {
      "primitives": [
        {
          "attributes": {
            "NORMAL": 26,
            "POSITION": 25,
            "TANGENT": 27,
            "TEXCOORD_0": 28
          },
          "indices": 29,
          "material": 5,
          "mode": 4
        }
      ]
    },
    {
      "primitives": [
        {
          "attributes": {
            "NORMAL": 31,
            "POSITION": 30,
            "TANGENT": 32,
            "TEXCOORD_0": 33
          },
          "indices": 34,
          "material": 6,
          "mode": 4
        }
      ]
    },
    {
      "primitives": [
        {
          "attributes": {
            "NORMAL": 36,
            "POSITION": 35,
            "TANGENT": 37,
            "TEXCOORD_0": 38
          },
          "indices": 39,
          "material": 7,
          "mode": 4
        }
      ]
    },
    {
      "primitives": [
        {
          "attributes": {
            "NORMAL": 41,
            "POSITION": 40
          },
          "indices": 42,
          "material": 8,
          "mode": 4
        }
      ]
    },
    {
      "primitives": [
        {
          "attributes": {
            "NORMAL": 44,
            "POSITION": 43,
            "TANGENT": 45,
            "TEXCOORD_0": 46
          },
          "indices": 47,
          "material": 8,
          "mode": 4
        }
      ]
    }
  ],
  "nodes": [
    {
      "children": [
        1
      ],
      "name": "RootNode (gltf orientation matrix)",
      "rotation": [
        -0.70710678118654746,
        -0,
        -0,
        0.70710678118654757
      ]
    },
    {
      "children": [
        2
      ],
      "name": "RootNode (model correction matrix)"
    },
    {
      "children": [
        3,
        4,
        5,
        6,
        7,
        8,
        9,
        10,
        11,
        12
      ],
      "name": "76f848e4f640400497e3b60985568616.obj.cleaner.materialmerger.gles"
    },
    {
      "mesh": 0,
      "name": ""
    },
    {
      "mesh": 1,
      "name": ""
    },
    {
      "mesh": 2,
      "name": ""
    },
    {
      "mesh": 3,
      "name": ""
    },
    {
      "mesh": 4,
      "name": ""
    },
    {
      "mesh": 5,
      "name": ""
    },
    {
      "mesh": 6,
      "name": ""
    },
    {
      "mesh": 7,
      "name": ""
    },
    {
      "mesh": 8,
      "name": ""
    },
    {
      "mesh": 9,
      "name": ""
    }
  ],
  "scene": 0,
  "scenes": [
    {
      "name": "OSG_Scene",
      "nodes": [
        0
      ]
    }
  ]
}

